<?xml version="1.0" encoding="UTF-8"?>
<svg version="1.1" xmlns="http://www.w3.org/2000/svg" width="150" height="150">
<path d="M0 0 C1.03447266 0.46792969 1.03447266 0.46792969 2.08984375 0.9453125 C9.9103679 4.7636516 15.87587433 10.94897951 22 17 C22.70640625 17.68191406 23.4128125 18.36382813 24.140625 19.06640625 C32.08852671 27.35442087 36.74233513 38.88534217 39 50 C39.27457031 51.28390625 39.27457031 51.28390625 39.5546875 52.59375 C41.77129148 69.54882602 40.98453033 87.6428924 33 103 C32.53207031 104.03447266 32.53207031 104.03447266 32.0546875 105.08984375 C28.2363484 112.9103679 22.05102049 118.87587433 16 125 C15.31808594 125.70640625 14.63617188 126.4128125 13.93359375 127.140625 C5.64557913 135.08852671 -5.88534217 139.74233513 -17 142 C-17.8559375 142.18304688 -18.711875 142.36609375 -19.59375 142.5546875 C-36.52342962 144.7679713 -54.67355846 144.01023454 -70 136 C-70.72445312 135.65324219 -71.44890625 135.30648437 -72.1953125 134.94921875 C-78.71498072 131.64395141 -83.75711873 127.04016881 -89 122 C-90.3921875 120.6696875 -90.3921875 120.6696875 -91.8125 119.3125 C-100.75597979 109.85796422 -106.40247538 98.78781349 -109 86 C-109.18304688 85.1440625 -109.36609375 84.288125 -109.5546875 83.40625 C-111.77129148 66.45117398 -110.98453033 48.3571076 -103 33 C-102.68804687 32.31035156 -102.37609375 31.62070312 -102.0546875 30.91015625 C-98.2363484 23.0896321 -92.05102049 17.12412567 -86 11 C-85.31808594 10.29359375 -84.63617188 9.5871875 -83.93359375 8.859375 C-75.64557913 0.91147329 -64.11465783 -3.74233513 -53 -6 C-51.71609375 -6.27457031 -51.71609375 -6.27457031 -50.40625 -6.5546875 C-33.45117398 -8.77129148 -15.3571076 -7.98453033 0 0 Z " fill="#9B6258" transform="translate(110,7)"/>
<path d="M0 0 C1.03447266 0.46792969 1.03447266 0.46792969 2.08984375 0.9453125 C9.9103679 4.7636516 15.87587433 10.94897951 22 17 C22.70640625 17.68191406 23.4128125 18.36382813 24.140625 19.06640625 C32.08852671 27.35442087 36.74233513 38.88534217 39 50 C39.27457031 51.28390625 39.27457031 51.28390625 39.5546875 52.59375 C41.77129148 69.54882602 40.98453033 87.6428924 33 103 C32.53207031 104.03447266 32.53207031 104.03447266 32.0546875 105.08984375 C28.2363484 112.9103679 22.05102049 118.87587433 16 125 C15.31808594 125.70640625 14.63617188 126.4128125 13.93359375 127.140625 C5.64557913 135.08852671 -5.88534217 139.74233513 -17 142 C-17.8559375 142.18304688 -18.711875 142.36609375 -19.59375 142.5546875 C-36.52342962 144.7679713 -54.67355846 144.01023454 -70 136 C-70.72445312 135.65324219 -71.44890625 135.30648437 -72.1953125 134.94921875 C-78.71498072 131.64395141 -83.75711873 127.04016881 -89 122 C-90.3921875 120.6696875 -90.3921875 120.6696875 -91.8125 119.3125 C-96.42878145 114.43243103 -99.89896662 109.83894764 -102.8125 103.8125 C-103.12380859 103.19697266 -103.43511719 102.58144531 -103.75585938 101.94726562 C-105.15829469 99.10232542 -106 97.21366315 -106 94 C-102.64720497 94.27747269 -101.33783751 94.6154695 -99.078125 97.1875 C-98.47484375 98.115625 -97.8715625 99.04375 -97.25 100 C-92.36110104 107.0985708 -86.7312587 112.90042166 -79.9375 118.1875 C-77.22919695 120.41529767 -77.04416659 120.65928633 -76.5625 124.375 C-76.706875 125.24125 -76.85125 126.1075 -77 127 C-76.01 126.34 -75.02 125.68 -74 125 C-70.24301443 124.62430144 -69.24633524 124.8357765 -66 127 C-56.96543465 129.79835573 -47.15065736 129.37232631 -37.79443359 129.37060547 C-35.13704356 129.37498017 -32.48131671 129.41140752 -29.82421875 129.44921875 C-20.23965446 129.51388105 -10.73732926 129.50477378 -2 125 C-0.17117345 122.98264568 -0.17117345 122.98264568 1 121 C2.9375 121.75 2.9375 121.75 5 123 C5.75 125.125 5.75 125.125 6 127 C6.66 127 7.32 127 8 127 C7.73058594 126.12988281 7.46117188 125.25976562 7.18359375 124.36328125 C7 121 7 121 9.09765625 118.10546875 C10.07119326 117.11805511 11.06044485 116.14595996 12.0625 115.1875 C13.09014295 114.13560253 14.11359555 113.07959499 15.1328125 112.01953125 C15.62942383 111.50600098 16.12603516 110.9924707 16.63769531 110.46337891 C24.03795271 102.51407015 27.7915972 92.6900462 29.60546875 82.12890625 C30 80 30 80 31 77 C31.13510099 75.47053844 31.22382859 73.93668652 31.28125 72.40234375 C31.31863281 71.51869141 31.35601562 70.63503906 31.39453125 69.72460938 C31.46499136 67.86263579 31.53530324 66.00065659 31.60546875 64.13867188 C31.66154297 62.81512695 31.66154297 62.81512695 31.71875 61.46484375 C31.74904297 60.656521 31.77933594 59.84819824 31.81054688 59.01538086 C32 57 32 57 33 55 C32.01 55 31.02 55 30 55 C29.65388672 53.74896484 29.65388672 53.74896484 29.30078125 52.47265625 C25.65724589 39.90029907 20.28355831 28.52237221 9 21 C5.3699299 19.65845236 1.80970342 18.6723006 -2 18 C1.25955234 21.39536702 4.7835483 24.39938891 8.390625 27.4140625 C9.18726562 28.19910156 9.18726562 28.19910156 10 29 C10 29.66 10 30.32 10 31 C6.55296566 29.46798474 3.93413229 27.34730584 1 25 C-0.32 24.34 -1.64 23.68 -3 23 C-3.33 26.96 -3.66 30.92 -4 35 C-2.68 35 -1.36 35 0 35 C2 38 2 38 1.625 40.1875 C1.41875 40.785625 1.2125 41.38375 1 42 C0.01 39.525 0.01 39.525 -1 37 C-1.99 37 -2.98 37 -4 37 C-4 37.66 -4 38.32 -4 39 C-5.134375 39.4125 -6.26875 39.825 -7.4375 40.25 C-11.09543384 41.56685398 -11.09543384 41.56685398 -11.9375 44.1875 C-11.958125 44.785625 -11.97875 45.38375 -12 46 C-13.65 46.33 -15.3 46.66 -17 47 C-16.505 48.98 -16.505 48.98 -16 51 C-17.32 51 -18.64 51 -20 51 C-19.67 49.35 -19.34 47.7 -19 46 C-19.969375 46.78375 -20.93875 47.5675 -21.9375 48.375 C-22.48277344 48.81585938 -23.02804688 49.25671875 -23.58984375 49.7109375 C-25.13266437 50.9666391 -25.13266437 50.9666391 -26 53 C-27.65438613 53.69658363 -29.32254318 54.36096883 -31 55 C-31.99 55.66 -32.98 56.32 -34 57 C-34.66 56.67 -35.32 56.34 -36 56 C-36.33 56.66 -36.66 57.32 -37 58 C-40 54.25 -40 54.25 -40 52 C-39.01 52 -38.02 52 -37 52 C-37.22934409 50.08075213 -37.48434343 48.1645594 -37.75 46.25 C-37.95882812 44.64898437 -37.95882812 44.64898437 -38.171875 43.015625 C-39.11857229 39.5682179 -40.34927431 38.316776 -43 36 C-43.33 35.34 -43.66 34.68 -44 34 C-45.485 34.495 -45.485 34.495 -47 35 C-47.99 31.37 -48.98 27.74 -50 24 C-52.97 24.33 -55.94 24.66 -59 25 C-59 25.66 -59 26.32 -59 27 C-57.35 27.66 -55.7 28.32 -54 29 C-54.375 30.9375 -54.375 30.9375 -55 33 C-55.99 33.495 -55.99 33.495 -57 34 C-60 33 -60 33 -61.6875 29.6875 C-63 26 -63 26 -63 22 C-61.02 21.67 -59.04 21.34 -57 21 C-57 20.34 -57 19.68 -57 19 C-59.64 19 -62.28 19 -65 19 C-65 19.66 -65 20.32 -65 21 C-66.60875 21.928125 -66.60875 21.928125 -68.25 22.875 C-69.20519531 23.42800781 -69.20519531 23.42800781 -70.1796875 23.9921875 C-72 25 -72 25 -74.375 26 C-74.91125 26.33 -75.4475 26.66 -76 27 C-76.13148437 27.63164063 -76.26296875 28.26328125 -76.3984375 28.9140625 C-77.15005158 31.52030874 -77.97447555 31.98000458 -80.25 33.375 C-85.09522642 36.60846732 -88.69681283 40.55610305 -91 46 C-91.66 45.67 -92.32 45.34 -93 45 C-93.99 47.31 -94.98 49.62 -96 52 C-97.23593891 48.29218328 -96.5678132 47.32489747 -95.0625 43.8125 C-94.68222656 42.91144531 -94.30195312 42.01039062 -93.91015625 41.08203125 C-93.60980469 40.39496094 -93.30945313 39.70789062 -93 39 C-96.465 39.495 -96.465 39.495 -100 40 C-100.17015625 40.53367188 -100.3403125 41.06734375 -100.515625 41.6171875 C-100.75796875 42.36226562 -101.0003125 43.10734375 -101.25 43.875 C-101.51941406 44.71160156 -101.78882812 45.54820313 -102.06640625 46.41015625 C-103 49 -103 49 -104.08984375 51.12109375 C-109.72961811 62.3805721 -108.04740356 78.13689329 -105 90 C-106.485 90.495 -106.485 90.495 -108 91 C-109.64118637 83.33893828 -110.35551701 76.01722821 -110.3125 68.1875 C-110.30831055 67.13941162 -110.30412109 66.09132324 -110.29980469 65.01147461 C-110.13334891 53.55170252 -108.33198178 43.25530803 -103 33 C-102.68804687 32.31035156 -102.37609375 31.62070312 -102.0546875 30.91015625 C-98.2363484 23.0896321 -92.05102049 17.12412567 -86 11 C-85.31808594 10.29359375 -84.63617188 9.5871875 -83.93359375 8.859375 C-75.64557913 0.91147329 -64.11465783 -3.74233513 -53 -6 C-51.71609375 -6.27457031 -51.71609375 -6.27457031 -50.40625 -6.5546875 C-33.45117398 -8.77129148 -15.3571076 -7.98453033 0 0 Z " fill="#88887E" transform="translate(110,7)"/>
<path d="M0 0 C2.64 0 5.28 0 8 0 C8 0.66 8 1.32 8 2 C6.02 2.33 4.04 2.66 2 3 C2.2165625 3.54269531 2.433125 4.08539063 2.65625 4.64453125 C2.9346875 5.35996094 3.213125 6.07539062 3.5 6.8125 C3.7784375 7.52019531 4.056875 8.22789063 4.34375 8.95703125 C5 11 5 11 5 14 C6.65 13.67 8.3 13.34 10 13 C10 12.01 10 11.02 10 10 C8.68 9.34 7.36 8.68 6 8 C6 7.34 6 6.68 6 6 C10.455 5.505 10.455 5.505 15 5 C17.15305957 8.85756507 18.39253254 11.55129785 18 16 C19.32 15.34 20.64 14.68 22 14 C22.0825 14.78375 22.165 15.5675 22.25 16.375 C22.70849401 19.1446618 22.70849401 19.1446618 25 20.125 C25.99 20.558125 25.99 20.558125 27 21 C27.96070434 23.88211302 28.10581883 25.69850044 28.0625 28.6875 C28.05347656 29.49574219 28.04445313 30.30398437 28.03515625 31.13671875 C28.02355469 31.75160156 28.01195313 32.36648437 28 33 C27.01 33 26.02 33 25 33 C25.99 34.65 26.98 36.3 28 38 C30.91517292 36.92598892 32.77810176 36.22189824 35 34 C36.32 34 37.64 34 39 34 C39.268125 33.401875 39.53625 32.80375 39.8125 32.1875 C40.99917406 30.00152146 42.09599113 28.58667406 44 27 C44.66 27 45.32 27 46 27 C45.505 29.475 45.505 29.475 45 32 C45.680625 31.71125 46.36125 31.4225 47.0625 31.125 C52.85875846 28.90515633 57.76200805 27.74538808 64 28 C64 28.66 64 29.32 64 30 C64.99 30 65.98 30 67 30 C66.67 31.32 66.34 32.64 66 34 C64.87980469 34.27714844 63.75960937 34.55429687 62.60546875 34.83984375 C61.13279698 35.20566667 59.66014158 35.57155553 58.1875 35.9375 C57.08051758 36.21110352 57.08051758 36.21110352 55.95117188 36.49023438 C50.12550905 37.47848508 50.12550905 37.47848508 45.75390625 40.8125 C44.96023043 42.26974086 44.16855924 43.72807533 43.37890625 45.1875 C42 47 42 47 39.96484375 47.8125 C38 48 38 48 36 47 C36 46.34 36 45.68 36 45 C32.52674819 43.8422494 29.63932552 43.93133348 26 44 C25.34 45.32 24.68 46.64 24 48 C21.5 48.5 21.5 48.5 18 48 C15.81195166 46.0984818 13.91244469 44.02959145 11.953125 41.89453125 C9.52388697 39.53817036 7.20636012 38.94733367 4 38 C3.34 37.154375 2.68 36.30875 2 35.4375 C0.15564724 32.69581682 0.15564724 32.69581682 -3.25 32.1875 C-4.61125 32.0946875 -4.61125 32.0946875 -6 32 C-5.484375 32.598125 -4.96875 33.19625 -4.4375 33.8125 C-3.963125 34.534375 -3.48875 35.25625 -3 36 C-3.60416667 37.8125 -4.20833333 39.625 -4.8125 41.4375 C-4.9053125 42.7059375 -4.9053125 42.7059375 -5 44 C-4.401875 44.5775 -3.80375 45.155 -3.1875 45.75 C-0.36686515 48.65122442 -0.08758043 51.07735125 0.60546875 54.9765625 C0.91766367 57.05847316 0.91766367 57.05847316 2 59 C2.33 58.67 2.66 58.34 3 58 C3 56.02601418 2.99714973 54.05190651 2.96875 52.078125 C3.00558125 49.62884658 3.40670669 47.37317322 4 45 C4.99 45.495 4.99 45.495 6 46 C6.495 45.01 6.495 45.01 7 44 C8.65 44.33 10.3 44.66 12 45 C12.495 47.475 12.495 47.475 13 50 C15.97 50.495 15.97 50.495 19 51 C18.01 51.495 18.01 51.495 17 52 C17 52.66 17 53.32 17 54 C20.465 53.505 20.465 53.505 24 53 C26.15827162 56.23740742 26.73320331 57.24233303 26 61 C23.04321539 63.39358754 20.2983361 64.88525535 16.75 66.25 C13.63378746 68.23304434 13.47772779 68.77058373 12.625 72.1875 C12.41875 73.445625 12.2125 74.70375 12 76 C11.34 76 10.68 76 10 76 C9.81824219 76.63808594 9.63648438 77.27617188 9.44921875 77.93359375 C9.19785156 78.75988281 8.94648437 79.58617188 8.6875 80.4375 C8.44386719 81.26121094 8.20023438 82.08492188 7.94921875 82.93359375 C7.63597656 83.61550781 7.32273438 84.29742187 7 85 C6.01 85.33 5.02 85.66 4 86 C2.88229538 87.39500856 1.82672812 88.84054422 0.8125 90.3125 C-2.65898323 94.97568642 -5.71891667 96.72367098 -11 99 C-11.33 99.66 -11.66 100.32 -12 101 C-21.19194715 96.97325251 -30.60189264 86.93388094 -35.5546875 78.28515625 C-36.81876931 75.73493492 -36.81876931 75.73493492 -39.6875 75.1875 C-40.8321875 75.0946875 -40.8321875 75.0946875 -42 75 C-42 73.68 -42 72.36 -42 71 C-41.34 71 -40.68 71 -40 71 C-40.309375 70.29875 -40.61875 69.5975 -40.9375 68.875 C-46.06211038 55.00840721 -43.84848276 39.94373328 -38.02172852 26.8293457 C-35.35073396 21.17536698 -35.35073396 21.17536698 -33 20 C-32.34 19.01 -31.68 18.02 -31 17 C-31 17.99 -31 18.98 -31 20 C-30.01 20 -29.02 20 -28 20 C-28.66 22.64 -29.32 25.28 -30 28 C-29.01 27.01 -28.02 26.02 -27 25 C-26.67 25.33 -26.34 25.66 -26 26 C-25.67 24.02 -25.34 22.04 -25 20 C-24.01 20 -23.02 20 -22 20 C-20.7315513 18.50388102 -19.46772884 17.0021697 -18.26953125 15.44921875 C-17 14 -17 14 -14.75 12.9375 C-14.1725 12.628125 -13.595 12.31875 -13 12 C-12.18828772 9.44480079 -12.18828772 9.44480079 -12 7 C-11.443125 6.9175 -10.88625 6.835 -10.3125 6.75 C-7.79414421 6.084918 -7.79414421 6.084918 -5.4375 3.9375 C-3 2 -3 2 0 2 C0 1.34 0 0.68 0 0 Z " fill="#A4A59D" transform="translate(45,26)"/>
<path d="M0 0 C9.33004172 1.20387635 16.14536423 5.83333169 22 13 C27.19138039 20.22956669 32 28.94400808 32 38 C33.65 37.34 35.3 36.68 37 36 C36.67708984 36.56605957 36.35417969 37.13211914 36.02148438 37.71533203 C34.9180041 40.18339331 34.72074969 41.86738595 34.65625 44.5546875 C34.61177734 45.84826172 34.61177734 45.84826172 34.56640625 47.16796875 C34.54449219 48.06128906 34.52257812 48.95460937 34.5 49.875 C34.35706183 55.6513838 34.11633422 60.54761221 32 66 C31.68498576 67.43256474 31.39121137 68.870069 31.125 70.3125 C28.65079268 81.60697312 22.04277795 92.72646121 13 100 C10.5 100.0625 10.5 100.0625 8 99 C7.030625 98.649375 6.06125 98.29875 5.0625 97.9375 C1.00901725 95.37305173 -1.54525757 92.09994215 -4 88 C-4 87.34 -4 86.68 -4 86 C-5.485 85.505 -5.485 85.505 -7 85 C-8.04644066 83.36209288 -9.0398183 81.68991979 -10 80 C-10.70125 79.195625 -11.4025 78.39125 -12.125 77.5625 C-14.25906664 74.64594225 -14.66892049 72.55910473 -15 69 C-17.97 68.01 -20.94 67.02 -24 66 C-23.67 64.68 -23.34 63.36 -23 62 C-22.34 62 -21.68 62 -21 62 C-20.67 60.68 -20.34 59.36 -20 58 C-19.34 58 -18.68 58 -18 58 C-18 55.03 -18 52.06 -18 49 C-15.525 48.505 -15.525 48.505 -13 48 C-13 48.99 -13 49.98 -13 51 C-10.69 50.34 -8.38 49.68 -6 49 C-6.66 50.32 -7.32 51.64 -8 53 C-6.81575674 54.41577477 -6.81575674 54.41577477 -3.4375 54.0625 C-1.7359375 54.0315625 -1.7359375 54.0315625 0 54 C-0.061875 53.278125 -0.12375 52.55625 -0.1875 51.8125 C0.03798462 48.43023074 1.25190881 46.86686955 3 44 C3.165 42.948125 3.33 41.89625 3.5 40.8125 C3.665 39.884375 3.83 38.95625 4 38 C4.99 37.34 5.98 36.68 7 36 C5.80907275 31.37190074 5.80907275 31.37190074 3.9375 27 C2.57679791 24.09716888 2.36484498 21.16198979 2 18 C0.68 18 -0.64 18 -2 18 C-1.67 14.04 -1.34 10.08 -1 6 C4.59282842 7.36410449 7.91193811 10.15383526 12 14 C8.12207712 9.07091854 4.23883167 5.4576289 -1 2 C-0.67 1.34 -0.34 0.68 0 0 Z " fill="#909E9D" transform="translate(108,24)"/>
<path d="M0 0 C8.65779354 1.6032951 14.91151277 9.12630048 21 15 C21.68964844 15.66257812 22.37929687 16.32515625 23.08984375 17.0078125 C31.05124639 25.34832955 35.73118973 36.83047251 38 48 C38.27457031 49.28390625 38.27457031 49.28390625 38.5546875 50.59375 C40.77129148 67.54882602 39.98453033 85.6428924 32 101 C31.53207031 102.03447266 31.53207031 102.03447266 31.0546875 103.08984375 C27.2363484 110.9103679 21.05102049 116.87587433 15 123 C14.31808594 123.70640625 13.63617188 124.4128125 12.93359375 125.140625 C4.64557913 133.08852671 -6.88534217 137.74233513 -18 140 C-18.8559375 140.18304688 -19.711875 140.36609375 -20.59375 140.5546875 C-37.52342962 142.7679713 -55.67355846 142.01023454 -71 134 C-71.72445312 133.65324219 -72.44890625 133.30648437 -73.1953125 132.94921875 C-79.71498072 129.64395141 -84.75711873 125.04016881 -90 120 C-91.3921875 118.6696875 -91.3921875 118.6696875 -92.8125 117.3125 C-97.42878145 112.43243103 -100.89896662 107.83894764 -103.8125 101.8125 C-104.27946289 100.88920898 -104.27946289 100.88920898 -104.75585938 99.94726562 C-106.15829469 97.10232542 -107 95.21366315 -107 92 C-103.64720497 92.27747269 -102.33783751 92.6154695 -100.078125 95.1875 C-99.47484375 96.115625 -98.8715625 97.04375 -98.25 98 C-93.36110104 105.0985708 -87.7312587 110.90042166 -80.9375 116.1875 C-78.22919695 118.41529767 -78.04416659 118.65928633 -77.5625 122.375 C-77.706875 123.24125 -77.85125 124.1075 -78 125 C-76.515 124.01 -76.515 124.01 -75 123 C-71.24301443 122.62430144 -70.24633524 122.8357765 -67 125 C-57.96543465 127.79835573 -48.15065736 127.37232631 -38.79443359 127.37060547 C-36.13704356 127.37498017 -33.48131671 127.41140752 -30.82421875 127.44921875 C-21.23965446 127.51388105 -11.73732926 127.50477378 -3 123 C-1.17117345 120.98264568 -1.17117345 120.98264568 0 119 C1.9375 119.75 1.9375 119.75 4 121 C4.75 123.125 4.75 123.125 5 125 C5.66 125 6.32 125 7 125 C6.73058594 124.12988281 6.46117188 123.25976562 6.18359375 122.36328125 C6 119 6 119 8.09765625 116.10546875 C9.07119326 115.11805511 10.06044485 114.14595996 11.0625 113.1875 C12.09014295 112.13560253 13.11359555 111.07959499 14.1328125 110.01953125 C14.62942383 109.50600098 15.12603516 108.9924707 15.63769531 108.46337891 C23.03795271 100.51407015 26.7915972 90.6900462 28.60546875 80.12890625 C29 78 29 78 30 75 C30.13510099 73.47053844 30.22382859 71.93668652 30.28125 70.40234375 C30.31863281 69.51869141 30.35601562 68.63503906 30.39453125 67.72460938 C30.46499136 65.86263579 30.53530324 64.00065659 30.60546875 62.13867188 C30.64285156 61.25630859 30.68023437 60.37394531 30.71875 59.46484375 C30.74904297 58.656521 30.77933594 57.84819824 30.81054688 57.01538086 C31 55 31 55 32 53 C31.01 53 30.02 53 29 53 C28.65388672 51.74896484 28.65388672 51.74896484 28.30078125 50.47265625 C24.03299406 35.74626012 17.2239594 24.6112179 4.140625 16.05859375 C1.77057127 14.88654163 -0.39642411 14.40510184 -3 14 C-3.29341888 8.32723489 -3.00559652 5.00932754 0 0 Z " fill="#282228" transform="translate(111,9)"/>
<path d="M0 0 C2.64 0 5.28 0 8 0 C8 0.66 8 1.32 8 2 C6.02 2.33 4.04 2.66 2 3 C2.2165625 3.54269531 2.433125 4.08539063 2.65625 4.64453125 C2.9346875 5.35996094 3.213125 6.07539062 3.5 6.8125 C3.7784375 7.52019531 4.056875 8.22789063 4.34375 8.95703125 C5 11 5 11 5 14 C6.65 13.67 8.3 13.34 10 13 C10 12.01 10 11.02 10 10 C8.68 9.34 7.36 8.68 6 8 C6 7.34 6 6.68 6 6 C10.455 5.505 10.455 5.505 15 5 C17.15305957 8.85756507 18.39253254 11.55129785 18 16 C19.32 15.34 20.64 14.68 22 14 C22.0825 14.78375 22.165 15.5675 22.25 16.375 C22.70849401 19.1446618 22.70849401 19.1446618 25 20.125 C25.66 20.41375 26.32 20.7025 27 21 C27.96070434 23.88211302 28.10581883 25.69850044 28.0625 28.6875 C28.05347656 29.49574219 28.04445312 30.30398437 28.03515625 31.13671875 C28.02355469 31.75160156 28.01195312 32.36648437 28 33 C27.01 33 26.02 33 25 33 C25.99 34.65 26.98 36.3 28 38 C30.91517292 36.92598892 32.77810176 36.22189824 35 34 C36.32 34 37.64 34 39 34 C39.268125 33.401875 39.53625 32.80375 39.8125 32.1875 C40.99917406 30.00152146 42.09599113 28.58667406 44 27 C44.66 27 45.32 27 46 27 C45.505 29.475 45.505 29.475 45 32 C45.680625 31.71125 46.36125 31.4225 47.0625 31.125 C52.85875846 28.90515633 57.76200805 27.74538808 64 28 C64 28.66 64 29.32 64 30 C64.99 30 65.98 30 67 30 C66.67 31.32 66.34 32.64 66 34 C64.87980469 34.27714844 63.75960937 34.55429687 62.60546875 34.83984375 C61.13279698 35.20566667 59.66014158 35.57155553 58.1875 35.9375 C57.08051758 36.21110352 57.08051758 36.21110352 55.95117188 36.49023438 C50.12550905 37.47848508 50.12550905 37.47848508 45.75390625 40.8125 C44.96023043 42.26974086 44.16855924 43.72807533 43.37890625 45.1875 C42 47 42 47 39.96484375 47.8125 C38 48 38 48 36 47 C36 46.34 36 45.68 36 45 C32.52674819 43.8422494 29.63932552 43.93133348 26 44 C25.34 45.32 24.68 46.64 24 48 C21.5 48.5 21.5 48.5 18 48 C15.81195166 46.0984818 13.91244469 44.02959145 11.953125 41.89453125 C9.52388697 39.53817036 7.20636012 38.94733367 4 38 C3.34 37.154375 2.68 36.30875 2 35.4375 C0.15564724 32.69581682 0.15564724 32.69581682 -3.25 32.1875 C-4.61125 32.0946875 -4.61125 32.0946875 -6 32 C-5.484375 32.598125 -4.96875 33.19625 -4.4375 33.8125 C-3.963125 34.534375 -3.48875 35.25625 -3 36 C-3.8345262 38.50357861 -4.79371992 40.66785852 -6 43 C-6.78375 42.814375 -7.5675 42.62875 -8.375 42.4375 C-10.97089775 41.74037734 -10.97089775 41.74037734 -13 43 C-14.98 41.68 -16.96 40.36 -19 39 C-18.58846263 34.02906176 -18.20399168 29.55491614 -16 25 C-15.34 25 -14.68 25 -14 25 C-14 24.01 -14 23.02 -14 22 C-14.99 21.67 -15.98 21.34 -17 21 C-16 19 -16 19 -13 18 C-12.01 17.01 -11.02 16.02 -10 15 C-9.67 18.3 -9.34 21.6 -9 25 C-9.66 25 -10.32 25 -11 25 C-10.67 25.99 -10.34 26.98 -10 28 C-7.98491642 28.73323796 -7.98491642 28.73323796 -6 29 C-5.67 27.68 -5.34 26.36 -5 25 C-4.34 25 -3.68 25 -3 25 C-3.33 23.35 -3.66 21.7 -4 20 C-3.34 20 -2.68 20 -2 20 C-2.66 18.35 -3.32 16.7 -4 15 C-2.02 15.66 -0.04 16.32 2 17 C1.525625 16.29875 1.05125 15.5975 0.5625 14.875 C-1.11117944 11.79542983 -1.69770205 9.47642647 -2 6 C-1.67 5.01 -1.34 4.02 -1 3 C-1.66 2.67 -2.32 2.34 -3 2 C-2.01 2 -1.02 2 0 2 C0 1.34 0 0.68 0 0 Z " fill="#B4B3AB" transform="translate(45,26)"/>
<path d="M0 0 C0.04898438 0.59167969 0.09796875 1.18335937 0.1484375 1.79296875 C0.56456867 6.19104472 1.04965595 9.96928897 3 14 C0.525 13.505 0.525 13.505 -2 13 C-1.505 14.98 -1.505 14.98 -1 17 C-1.66 17 -2.32 17 -3 17 C-2.505 19.475 -2.505 19.475 -2 22 C-2.99 22.495 -2.99 22.495 -4 23 C-4.495 24.485 -4.495 24.485 -5 26 C-6.65 25.67 -8.3 25.34 -10 25 C-10 24.01 -10 23.02 -10 22 C-9.34 22 -8.68 22 -8 22 C-8.66 19.03 -9.32 16.06 -10 13 C-10.99 14.485 -10.99 14.485 -12 16 C-12.99 16 -13.98 16 -15 16 C-15 16.66 -15 17.32 -15 18 C-14.34 18.33 -13.68 18.66 -13 19 C-13 19.99 -13 20.98 -13 22 C-13.66 22 -14.32 22 -15 22 C-15.12375 22.639375 -15.2475 23.27875 -15.375 23.9375 C-16.1979822 27.97011276 -17.09885975 31.98423907 -18 36 C-15.35261084 37.4606285 -14.10551666 38 -11 38 C-8.98848259 38.63106429 -6.98636298 39.29373761 -5 40 C-5.33 41.65 -5.66 43.3 -6 45 C-12.47355638 44.39780871 -15.59029511 41.44782914 -20 37 C-19.7834375 37.57105469 -19.566875 38.14210937 -19.34375 38.73046875 C-17.15684647 45.09881281 -16.78102063 50.59757675 -17.08984375 57.3125 C-17.30115148 60.15423948 -17.30115148 60.15423948 -15 62 C-16.485 62.495 -16.485 62.495 -18 63 C-18.495 62.505 -18.495 62.505 -19 62 C-19.33 62.99 -19.66 63.98 -20 65 C-23.34481456 67.34137019 -26.75880896 67.38552854 -30.75 67.625 C-32.50570312 67.73714844 -32.50570312 67.73714844 -34.296875 67.8515625 C-35.18890625 67.90054688 -36.0809375 67.94953125 -37 68 C-37 67.34 -37 66.68 -37 66 C-37.99 65.67 -38.98 65.34 -40 65 C-45.26838975 49.03355351 -42.16098079 34.25202898 -34.96142578 19.5402832 C-34 18 -34 18 -32 17 C-31.34 16.01 -30.68 15.02 -30 14 C-30 14.99 -30 15.98 -30 17 C-29.01 17 -28.02 17 -27 17 C-27.66 19.64 -28.32 22.28 -29 25 C-28.01 24.01 -27.02 23.02 -26 22 C-25.67 22.33 -25.34 22.66 -25 23 C-24.67 21.02 -24.34 19.04 -24 17 C-23.01 17 -22.02 17 -21 17 C-19.7315513 15.50388102 -18.46772884 14.0021697 -17.26953125 12.44921875 C-16 11 -16 11 -13.75 9.9375 C-13.1725 9.628125 -12.595 9.31875 -12 9 C-11.18828772 6.44480079 -11.18828772 6.44480079 -11 4 C-10.4225 3.896875 -9.845 3.79375 -9.25 3.6875 C-6.90012053 3.11076107 -6.90012053 3.11076107 -4.9375 1.4375 C-3 0 -3 0 0 0 Z " fill="#C7C1BD" transform="translate(44,29)"/>
<path d="M0 0 C-0.28617187 0.67417969 -0.57234375 1.34835937 -0.8671875 2.04296875 C-2.1617599 5.42224913 -3.14815369 8.82841481 -4.125 12.3125 C-4.47820312 13.56675781 -4.83140625 14.82101563 -5.1953125 16.11328125 C-5.46085937 17.06589844 -5.72640625 18.01851562 -6 19 C-8.31 18.67 -10.62 18.34 -13 18 C-13 17.34 -13 16.68 -13 16 C-13.98742187 15.86722656 -14.97484375 15.73445313 -15.9921875 15.59765625 C-17.91417969 15.33275391 -17.91417969 15.33275391 -19.875 15.0625 C-21.15117188 14.88847656 -22.42734375 14.71445312 -23.7421875 14.53515625 C-27 14 -27 14 -29 13 C-37.34062278 12.21526399 -43.43125913 12.62630098 -50.66796875 16.88671875 C-54.5116162 18.72162582 -57.81288972 18.33767018 -62 18 C-62.24234375 17.28714844 -62.4846875 16.57429688 -62.734375 15.83984375 C-64.71365486 10.18367093 -66.83341416 5.08915582 -70 0 C-49.50431777 -10.68161217 -20.49568223 -10.68161217 0 0 Z " fill="#292227" transform="translate(110,7)"/>
<path d="M0 0 C0.99 0 1.98 0 3 0 C3.39832031 0.83144531 3.39832031 0.83144531 3.8046875 1.6796875 C4.15789062 2.40414062 4.51109375 3.12859375 4.875 3.875 C5.22304687 4.59429687 5.57109375 5.31359375 5.9296875 6.0546875 C6.96557543 8.15135019 6.96557543 8.15135019 9 10 C9.39764263 11.98821313 9.73775349 13.98944339 10 16 C8.68 16.66 7.36 17.32 6 18 C6.061875 18.886875 6.12375 19.77375 6.1875 20.6875 C5.97637705 24.41733882 4.98187339 25.90827752 3 29 C2.29329272 31.69254991 2.29329272 31.69254991 2 34 C-2.95 34.495 -2.95 34.495 -8 35 C-6.68 33.02 -5.36 31.04 -4 29 C-4.598125 29.33 -5.19625 29.66 -5.8125 30 C-8 31 -8 31 -11 31 C-11 30.01 -11 29.02 -11 28 C-12.32 28.33 -13.64 28.66 -15 29 C-14.979375 30.11375 -14.95875 31.2275 -14.9375 32.375 C-15 36 -15 36 -16 38 C-16.66 38 -17.32 38 -18 38 C-18.103125 38.598125 -18.20625 39.19625 -18.3125 39.8125 C-19.12255514 42.38994819 -19.80289005 43.43063575 -22 45 C-24.625 45.125 -24.625 45.125 -27 45 C-27.33 45.33 -27.66 45.66 -28 46 C-29.99958364 46.04080783 -32.00045254 46.04254356 -34 46 C-34 45.34 -34 44.68 -34 44 C-34.99 43.505 -34.99 43.505 -36 43 C-36.40729228 40.67843403 -36.74438677 38.3431213 -37 36 C-39.64 36.33 -42.28 36.66 -45 37 C-44.67 36.01 -44.34 35.02 -44 34 C-44.804375 33.773125 -45.60875 33.54625 -46.4375 33.3125 C-47.283125 32.879375 -48.12875 32.44625 -49 32 C-49.8125 29.375 -49.8125 29.375 -50 27 C-51.32 26.67 -52.64 26.34 -54 26 C-54.33 26.99 -54.66 27.98 -55 29 C-55.33 28.67 -55.66 28.34 -56 28 C-56.60211758 31.16111728 -56.99953468 34.02419688 -56.9375 37.25 C-57 40 -57 40 -59 42 C-61.76458516 38.10444818 -62.62887331 34.61271232 -63.375 29.98828125 C-63.89117619 27.61941463 -63.89117619 27.61941463 -67 26 C-66.835 25.071875 -66.67 24.14375 -66.5 23.1875 C-65.93425889 19.58090041 -65.84120576 17.47638271 -67 14 C-64.3125 13.625 -64.3125 13.625 -61 14 C-59.71214918 15.48102845 -58.42912684 16.97228131 -57.2734375 18.55859375 C-55.97107178 20.27832823 -55.97107178 20.27832823 -53.125 20.9375 C-49.77702116 22.07581281 -48.83326752 23.02365825 -46.5 25.5625 C-44.0118835 28.23348475 -43.22020739 28.93994344 -39.5625 29.9375 C-38.2940625 29.9684375 -38.2940625 29.9684375 -37 30 C-36.855625 29.360625 -36.71125 28.72125 -36.5625 28.0625 C-36 26 -36 26 -35 25 C-28.53846154 24.64102564 -28.53846154 24.64102564 -25 27 C-25 27.66 -25 28.32 -25 29 C-22.61327723 29.36017103 -22.61327723 29.36017103 -20 29 C-18.44746845 27.12676031 -18.44746845 27.12676031 -17.3125 24.6875 C-15.00433645 20.91158117 -13.45924415 19.31889534 -9.1875 18.0625 C-7.46689315 17.66884601 -5.73680111 17.3146002 -4 17 C-2.31109702 16.67384958 -0.62347681 16.34095391 1.0625 16 C1.79597656 15.87625 2.52945313 15.7525 3.28515625 15.625 C3.85105469 15.41875 4.41695313 15.2125 5 15 C5.33 14.01 5.66 13.02 6 12 C-1.11778518 10.87932744 -7.02420757 11.2041045 -14 13 C-13.67 12.01 -13.34 11.02 -13 10 C-12.175 9.690625 -11.35 9.38125 -10.5 9.0625 C-9.2625 8.5365625 -9.2625 8.5365625 -8 8 C-7.33820153 6.01954441 -7.33820153 6.01954441 -7 4 C-4 2 -4 2 0 2 C0 1.34 0 0.68 0 0 Z " fill="#816A5C" transform="translate(106,44)"/>
<path d="M0 0 C0.54538676 21.36098153 -2.45807161 38.32388323 -17.125 54.6875 C-20 57 -20 57 -22.5 57.0625 C-23.325 56.711875 -24.15 56.36125 -25 56 C-25.94875 55.690625 -26.8975 55.38125 -27.875 55.0625 C-32.5214429 51.99584769 -35.05121609 47.6500054 -38 43 C-37.67 42.34 -37.34 41.68 -37 41 C-34.03 41.33 -31.06 41.66 -28 42 C-27.87625 41.01 -27.87625 41.01 -27.75 40 C-26.76146107 36.0458443 -25.14741483 32.46827753 -23 29 C-22.34 28.67 -21.68 28.34 -21 28 C-21.33 26.68 -21.66 25.36 -22 24 C-22.99 24 -23.98 24 -25 24 C-23.56246045 20.68997304 -21.77516456 18.56110536 -19.1875 16.0625 C-18.46949219 15.36382812 -17.75148438 14.66515625 -17.01171875 13.9453125 C-16.34785156 13.30335937 -15.68398437 12.66140625 -15 12 C-14.175 11.154375 -13.35 10.30875 -12.5 9.4375 C-2.82051282 0 -2.82051282 0 0 0 Z " fill="#D1C9C6" transform="translate(141,67)"/>
<path d="M0 0 C9.31591567 1.20205363 16.16703257 5.82569617 22 13 C24.23148879 16.22606637 26.16479647 19.53541016 28 23 C28.928125 24.7015625 28.928125 24.7015625 29.875 26.4375 C31.42545856 31.34728545 31.85764143 35.90269716 31 41 C28.52535344 43.98413262 26.71793651 44.77087133 23.0625 45.9375 C20.2047929 46.9289494 18.96284089 47.70289733 16.75 49.625 C14 52 14 52 12 52 C12.35185516 46.0184623 13.80393368 44.08847488 18 40 C18.41986946 37.28836222 18.41986946 37.28836222 18 35 C17.45730469 35.27714844 16.91460937 35.55429687 16.35546875 35.83984375 C15.28232422 36.38318359 15.28232422 36.38318359 14.1875 36.9375 C13.12595703 37.47697266 13.12595703 37.47697266 12.04296875 38.02734375 C10 39 10 39 7 40 C7.5878125 38.700625 7.5878125 38.700625 8.1875 37.375 C9.34352777 33.9757768 9.34352777 33.9757768 7.75 30.75 C6.13106215 27.98644185 6.13106215 27.98644185 4 26 C3.1436973 23.36766208 2.61070073 20.70453182 2 18 C0.68 18 -0.64 18 -2 18 C-1.67 14.04 -1.34 10.08 -1 6 C4.59282842 7.36410449 7.91193811 10.15383526 12 14 C8.12207712 9.07091854 4.23883167 5.4576289 -1 2 C-0.67 1.34 -0.34 0.68 0 0 Z " fill="#CEC6C1" transform="translate(108,24)"/>
<path d="M0 0 C4.93872549 4.77941176 4.93872549 4.77941176 5.09765625 7.9453125 C5.06510417 9.96354167 5.03255208 11.98177083 5 14 C3.2675 14.7734375 3.2675 14.7734375 1.5 15.5625 C-3.28188862 17.94918238 -7.35725329 21.0847286 -11 25 C-11.33 25.99 -11.66 26.98 -12 28 C-12.66 28.474375 -13.32 28.94875 -14 29.4375 C-16.29189635 31.22804402 -16.61121002 32.18127263 -17 35 C-18.65 35 -20.3 35 -22 35 C-22 34.34 -22 33.68 -22 33 C-23.97235696 33.46565786 -23.97235696 33.46565786 -26 35 C-27.19628976 37.58269892 -28.1651073 40.0049973 -29.0625 42.6875 C-29.55176395 44.08780717 -30.04263925 45.48755243 -30.53515625 46.88671875 C-30.77290771 47.58168457 -31.01065918 48.27665039 -31.25561523 48.99267578 C-32 51 -32 51 -33.6640625 54.41015625 C-35.36964719 58.99329172 -35.4115402 62.9062005 -35.3125 67.75 C-35.30412109 68.62946289 -35.29574219 69.50892578 -35.28710938 70.41503906 C-35.17026256 76.75047318 -34.58112167 82.84491919 -33 89 C-34.485 89.495 -34.485 89.495 -36 90 C-37.64118637 82.33893828 -38.35551701 75.01722821 -38.3125 67.1875 C-38.30831055 66.13941162 -38.30412109 65.09132324 -38.29980469 64.01147461 C-38.13334891 52.55170252 -36.33198178 42.25530803 -31 32 C-30.68804688 31.31035156 -30.37609375 30.62070312 -30.0546875 29.91015625 C-24.35783627 18.24216096 -12.00038984 5.10016568 0 0 Z " fill="#292328" transform="translate(38,8)"/>
<path d="M0 0 C1.18464844 -0.00515625 2.36929688 -0.0103125 3.58984375 -0.015625 C7.09555985 0.25252876 9.77418442 1.05182833 13.0625 2.25 C14.84712483 2.65719609 16.63891478 3.03472712 18.4375 3.375 C19.31148437 3.54257812 20.18546875 3.71015625 21.0859375 3.8828125 C21.73820312 4.00398438 22.39046875 4.12515625 23.0625 4.25 C23.0625 4.91 23.0625 5.57 23.0625 6.25 C23.84625 6.37375 24.63 6.4975 25.4375 6.625 C28.0625 7.25 28.0625 7.25 30.0625 9.25 C29.6875 12.875 29.6875 12.875 29.0625 16.25 C25.68231469 17.29005702 22.5844721 17.33004482 19.0625 17.25 C18.0725 19.56 17.0825 21.87 16.0625 24.25 C16.805 23.87875 17.5475 23.5075 18.3125 23.125 C21.0625 22.25 21.0625 22.25 23.375 23.125 C23.931875 23.49625 24.48875 23.8675 25.0625 24.25 C24.5675 25.735 24.5675 25.735 24.0625 27.25 C23.11375 27.559375 22.165 27.86875 21.1875 28.1875 C17.70396684 29.37190127 17.05588378 30.30738584 15.0625 33.25 C12.31171116 34.16692961 10.70301087 34.35886083 7.875 34.3125 C6.616875 34.291875 5.35875 34.27125 4.0625 34.25 C4.3125 30.875 4.3125 30.875 5.0625 27.25 C7 26 7 26 9.0625 25.25 C9.7225 24.26 10.3825 23.27 11.0625 22.25 C11.7225 22.25 12.3825 22.25 13.0625 22.25 C13.35125 21.486875 13.64 20.72375 13.9375 19.9375 C15.0625 17.25 15.0625 17.25 17.0625 14.25 C16.44375 14.105625 15.825 13.96125 15.1875 13.8125 C13.0625 13.25 13.0625 13.25 11.0625 12.25 C9.0250237 12.02141886 6.98209697 11.83975722 4.9375 11.6875 C3.29394531 11.56181641 3.29394531 11.56181641 1.6171875 11.43359375 C0.77414063 11.37300781 -0.06890625 11.31242187 -0.9375 11.25 C-0.9375 13.23 -0.9375 15.21 -0.9375 17.25 C-2.8125 17.875 -2.8125 17.875 -4.9375 18.25 C-5.5975 17.59 -6.2575 16.93 -6.9375 16.25 C-6.9375 15.26 -6.9375 14.27 -6.9375 13.25 C-7.9275 13.25 -8.9175 13.25 -9.9375 13.25 C-10.2675 13.91 -10.5975 14.57 -10.9375 15.25 C-13.22763653 11.8147952 -13.11592973 10.264669 -12.9375 6.25 C-13.5975 5.92 -14.2575 5.59 -14.9375 5.25 C-10.79092259 0.44869985 -6.11328098 -0.02655062 0 0 Z " fill="#CDC5C2" transform="translate(73.9375,18.75)"/>
<path d="M0 0 C0.33 1.98 0.66 3.96 1 6 C1.86625 6.12375 2.7325 6.2475 3.625 6.375 C8.44224478 7.26708237 12.65564132 8.77188471 17 11 C12.25323831 17.61516789 8.53424546 21.82768612 1 25 C0.67 25.66 0.34 26.32 0 27 C-8.55394337 23.25274499 -16.60030308 14.49489182 -22 7 C-23.0625 3.5 -23.0625 3.5 -23 1 C-21.02853437 -0.97146563 -17.56623727 -0.8048718 -14.875 -1.1875 C-13.57304687 -1.38730469 -12.27109375 -1.58710937 -10.9296875 -1.79296875 C-6.60852694 -2.02062433 -4.03098148 -1.408226 0 0 Z " fill="#CAC5C2" transform="translate(33,100)"/>
<path d="M0 0 C0.66 0 1.32 0 2 0 C2.55738884 5.01649958 1.73579878 7.86093802 -0.5625 12.375 C-2.89886321 17.09979022 -3.35793585 20.02449925 -2.1015625 25.125 C-2 27 -2 27 -3.4609375 28.75 C-3.96882813 29.1625 -4.47671875 29.575 -5 30 C-4.01 30 -3.02 30 -2 30 C-2 31.32 -2 32.64 -2 34 C-2.61875 34.061875 -3.2375 34.12375 -3.875 34.1875 C-6.24379837 34.81891092 -6.24379837 34.81891092 -7.1875 37.375 C-7.455625 38.24125 -7.72375 39.1075 -8 40 C-8.33 40.99 -8.66 41.98 -9 43 C-8.34 43 -7.68 43 -7 43 C-7.99 45.475 -7.99 45.475 -9 48 C-11.77400546 46.61299727 -12.42972831 44.65738286 -14 42 C-14.70125 41.195625 -15.4025 40.39125 -16.125 39.5625 C-18.25906664 36.64594225 -18.66892049 34.55910473 -19 31 C-21.97 30.01 -24.94 29.02 -28 28 C-27.67 26.68 -27.34 25.36 -27 24 C-26.34 24 -25.68 24 -25 24 C-24.67 22.68 -24.34 21.36 -24 20 C-23.34 20 -22.68 20 -22 20 C-22 17.03 -22 14.06 -22 11 C-20.35 10.67 -18.7 10.34 -17 10 C-17 10.99 -17 11.98 -17 13 C-14.69 12.34 -12.38 11.68 -10 11 C-10.66 12.32 -11.32 13.64 -12 15 C-10.81575674 16.41577477 -10.81575674 16.41577477 -7.4375 16.0625 C-6.303125 16.041875 -5.16875 16.02125 -4 16 C-4.061875 15.278125 -4.12375 14.55625 -4.1875 13.8125 C-3.96201538 10.43023074 -2.74809119 8.86686955 -1 6 C-0.28598768 2.80604974 -0.28598768 2.80604974 0 0 Z " fill="#8C9089" transform="translate(112,62)"/>
<path d="M0 0 C2.6875 -0.375 2.6875 -0.375 6 0 C7.28785082 1.48102845 8.57087316 2.97228131 9.7265625 4.55859375 C11.02892822 6.27832823 11.02892822 6.27832823 13.875 6.9375 C17.22297884 8.07581281 18.16673248 9.02365825 20.5 11.5625 C22.9881165 14.23348475 23.77979261 14.93994344 27.4375 15.9375 C28.7059375 15.9684375 28.7059375 15.9684375 30 16 C30.2165625 15.0409375 30.2165625 15.0409375 30.4375 14.0625 C31 12 31 12 32 11 C38.46153846 10.64102564 38.46153846 10.64102564 42 13 C42.30279086 15.92104126 42.41810841 18.58299784 42.375 21.5 C42.38660156 22.28503906 42.39820313 23.07007812 42.41015625 23.87890625 C42.3984375 26.15625 42.3984375 26.15625 42 30 C38.5647952 32.29013653 37.014669 32.17842973 33 32 C33 31.34 33 30.68 33 30 C32.34 29.67 31.68 29.34 31 29 C30.59270772 26.67843403 30.25561323 24.3431213 30 22 C26.04 22.495 26.04 22.495 22 23 C22.33 22.01 22.66 21.02 23 20 C22.195625 19.773125 21.39125 19.54625 20.5625 19.3125 C19.716875 18.879375 18.87125 18.44625 18 18 C17.1875 15.375 17.1875 15.375 17 13 C15.68 12.67 14.36 12.34 13 12 C12.67 12.99 12.34 13.98 12 15 C11.67 14.67 11.34 14.34 11 14 C10.39788242 17.16111728 10.00046532 20.02419688 10.0625 23.25 C10 26 10 26 8 28 C5.23541484 24.10444818 4.37112669 20.61271232 3.625 15.98828125 C3.10882381 13.61941463 3.10882381 13.61941463 0 12 C0.165 11.071875 0.33 10.14375 0.5 9.1875 C1.06574111 5.58090041 1.15879424 3.47638271 0 0 Z " fill="#98645C" transform="translate(39,58)"/>
<path d="M0 0 C-0.33 1.65 -0.66 3.3 -1 5 C-0.319375 4.71125 0.36125 4.4225 1.0625 4.125 C6.85875846 1.90515633 11.76200805 0.74538808 18 1 C18 1.66 18 2.32 18 3 C18.99 3 19.98 3 21 3 C20.67 4.32 20.34 5.64 20 7 C18.87980469 7.27714844 17.75960937 7.55429687 16.60546875 7.83984375 C15.13279698 8.20566667 13.66014158 8.57155553 12.1875 8.9375 C11.44951172 9.11990234 10.71152344 9.30230469 9.95117188 9.49023438 C4.12550905 10.47848508 4.12550905 10.47848508 -0.24609375 13.8125 C-1.03976957 15.26974086 -1.83144076 16.72807533 -2.62109375 18.1875 C-4 20 -4 20 -6.03515625 20.8125 C-8 21 -8 21 -10 20 C-10 19.34 -10 18.68 -10 18 C-13.53970718 16.82009761 -16.28183899 16.80430732 -20 17 C-20.66 17.4125 -21.32 17.825 -22 18.25 C-24 19 -24 19 -25.796875 18.2421875 C-27.57072278 17.22754657 -29.28962394 16.11832281 -31 15 C-31 14.01 -31 13.02 -31 12 C-30.34 12 -29.68 12 -29 12 C-29.99 9.03 -30.98 6.06 -32 3 C-30.68 3.33 -29.36 3.66 -28 4 C-27.67 3.01 -27.34 2.02 -27 1 C-26.34 1 -25.68 1 -25 1 C-24.9175 1.78375 -24.835 2.5675 -24.75 3.375 C-24.29090262 6.13056291 -24.29090262 6.13056291 -22.0625 7.125 C-21.381875 7.41375 -20.70125 7.7025 -20 8 C-19.01 9.485 -19.01 9.485 -18 11 C-15.08482708 9.92598892 -13.22189824 9.22189824 -11 7 C-9.68 7 -8.36 7 -7 7 C-6.731875 6.401875 -6.46375 5.80375 -6.1875 5.1875 C-3.37142857 0 -3.37142857 0 0 0 Z " fill="#C5BDB4" transform="translate(91,53)"/>
<path d="M0 0 C1.32 0.66 2.64 1.32 4 2 C4.33 2.99 4.66 3.98 5 5 C7.50447516 6.21869929 7.50447516 6.21869929 10 7 C10 8.65 10 10.3 10 12 C8.35 12 6.7 12 5 12 C6.2375 12.680625 6.2375 12.680625 7.5 13.375 C8.325 13.91125 9.15 14.4475 10 15 C10 15.66 10 16.32 10 17 C10.60328125 16.97679688 11.2065625 16.95359375 11.828125 16.9296875 C13.02695313 16.90261719 13.02695313 16.90261719 14.25 16.875 C15.43335937 16.84019531 15.43335937 16.84019531 16.640625 16.8046875 C19.20731941 17.0171622 20.7916067 17.71345895 23 19 C23 19.66 23 20.32 23 21 C23.66 21.66 24.32 22.32 25 23 C23.865625 22.979375 22.73125 22.95875 21.5625 22.9375 C18.18424326 22.58422523 18.18424326 22.58422523 17 24 C14.67182036 24.36760731 12.3381615 24.70241581 10 25 C15.20391664 28.75248411 19.68688724 31.65678452 26 33 C25.67 33.99 25.34 34.98 25 36 C18.82777121 34.75971762 12.93317878 33.10396411 7 31 C6.67 29.02 6.34 27.04 6 25 C0.81806025 24.05905115 -3.53737428 24.05576611 -8.8125 24.75 C-10.77123047 24.98976563 -10.77123047 24.98976563 -12.76953125 25.234375 C-16.27779754 25.67818604 -16.27779754 25.67818604 -18 29 C-18.33 28.34 -18.66 27.68 -19 27 C-21.52733235 26.34444881 -21.52733235 26.34444881 -24 26 C-24 24.68 -24 23.36 -24 22 C-23.34 22 -22.68 22 -22 22 C-22 21.34 -22 20.68 -22 20 C-21.34 20 -20.68 20 -20 20 C-20 20.66 -20 21.32 -20 22 C-17.91631462 21.68985608 -15.83306332 21.3767948 -13.75 21.0625 C-12.58984375 20.88847656 -11.4296875 20.71445313 -10.234375 20.53515625 C-7.76893039 20.1272264 -5.40575438 19.66098697 -3 19 C-2.67 17.68 -2.34 16.36 -2 15 C-1.67 15 -1.34 15 -1 15 C-0.67 10.05 -0.34 5.1 0 0 Z " fill="#879C9B" transform="translate(27,75)"/>
<path d="M0 0 C3 1 3 1 4.60546875 3.58203125 C5.38857422 5.18111328 5.38857422 5.18111328 6.1875 6.8125 C6.71730469 7.87082031 7.24710938 8.92914063 7.79296875 10.01953125 C9 13 9 13 9 17 C11.64 17 14.28 17 17 17 C17.495 18.485 17.495 18.485 18 20 C17.67 20.66 17.34 21.32 17 22 C15.02 22 13.04 22 11 22 C11 21.34 11 20.68 11 20 C11.99 20 12.98 20 14 20 C14 19.34 14 18.68 14 18 C11.36 18 8.72 18 6 18 C6 18.66 6 19.32 6 20 C4.39125 20.928125 4.39125 20.928125 2.75 21.875 C2.11320312 22.24367188 1.47640625 22.61234375 0.8203125 22.9921875 C-1 24 -1 24 -3.375 25 C-3.91125 25.33 -4.4475 25.66 -5 26 C-5.13148437 26.63164063 -5.26296875 27.26328125 -5.3984375 27.9140625 C-6.15005158 30.52030874 -6.97447555 30.98000458 -9.25 32.375 C-14.09522642 35.60846732 -17.69681283 39.55610305 -20 45 C-20.66 44.67 -21.32 44.34 -22 44 C-22.99 46.31 -23.98 48.62 -25 51 C-26.23593891 47.29218328 -25.5678132 46.32489747 -24.0625 42.8125 C-23.68222656 41.91144531 -23.30195313 41.01039062 -22.91015625 40.08203125 C-22.60980469 39.39496094 -22.30945313 38.70789062 -22 38 C-25.465 38.495 -25.465 38.495 -29 39 C-28.25 36.5625 -28.25 36.5625 -27 34 C-24.875 33.1875 -24.875 33.1875 -23 33 C-23 33.66 -23 34.32 -23 35 C-21.35 35 -19.7 35 -18 35 C-17.87625 33.824375 -17.87625 33.824375 -17.75 32.625 C-17.37875 31.325625 -17.37875 31.325625 -17 30 C-15.68352881 29.30062468 -14.34977849 28.63270867 -13 28 C-12.90203125 27.41734375 -12.8040625 26.8346875 -12.703125 26.234375 C-11.64561857 22.87385457 -9.45619793 21.50133656 -6.75 19.3125 C-5.79609375 18.52488281 -4.8421875 17.73726562 -3.859375 16.92578125 C-1.07847468 15.05285248 0.70718958 14.35451791 4 14 C3.71572583 12.41532272 3.42225182 10.8322943 3.125 9.25 C2.88136719 7.92742188 2.88136719 7.92742188 2.6328125 6.578125 C2.03203736 4.13052256 1.22002883 2.19400143 0 0 Z " fill="#514B4A" transform="translate(39,8)"/>
<path d="M0 0 C2 1 2 1 2.8515625 3.06640625 C3.10679688 3.89011719 3.36203125 4.71382812 3.625 5.5625 C3.88539062 6.38878906 4.14578125 7.21507812 4.4140625 8.06640625 C4.60742188 8.70449219 4.80078125 9.34257813 5 10 C6.32 9.67 7.64 9.34 9 9 C9.66 10.32 10.32 11.64 11 13 C11.99 13 12.98 13 14 13 C14.33 11.02 14.66 9.04 15 7 C16.95803507 6.94610913 18.91648909 6.90725783 20.875 6.875 C22.51082031 6.84019531 22.51082031 6.84019531 24.1796875 6.8046875 C27 7 27 7 29 9 C28.0925 9.185625 27.185 9.37125 26.25 9.5625 C21.791964 11.53432362 21.08018744 13.67961071 19 18 C18.01 18 17.02 18 16 18 C15.87625 18.61875 15.7525 19.2375 15.625 19.875 C15 22 15 22 13 24 C9.125 20.25 9.125 20.25 8 18 C7.01 18.33 6.02 18.66 5 19 C4.01 15.37 3.02 11.74 2 8 C-2.455 8.495 -2.455 8.495 -7 9 C-7 9.66 -7 10.32 -7 11 C-4.525 11.99 -4.525 11.99 -2 13 C-2.375 14.9375 -2.375 14.9375 -3 17 C-3.66 17.33 -4.32 17.66 -5 18 C-8 17 -8 17 -9.6875 13.6875 C-11 10 -11 10 -11 6 C-8.03 6.33 -5.06 6.66 -2 7 C-2.04125 6.21625 -2.0825 5.4325 -2.125 4.625 C-2 2 -2 2 0 0 Z " fill="#96918A" transform="translate(58,23)"/>
<path d="M0 0 C0.66 0.33 1.32 0.66 2 1 C1.525625 1.825 1.05125 2.65 0.5625 3.5 C-1.23569599 7.52795901 -1.6234255 10.63173579 -2 15 C-0.88625 14.87625 -0.88625 14.87625 0.25 14.75 C3.78157027 15.07105184 4.76630364 16.35265617 7 19 C6.443125 18.855625 5.88625 18.71125 5.3125 18.5625 C2.88615805 17.97230872 0.45093655 17.476571 -2 17 C1.25955234 20.39536702 4.7835483 23.39938891 8.390625 26.4140625 C8.92171875 26.93742187 9.4528125 27.46078125 10 28 C10 28.66 10 29.32 10 30 C6.55296566 28.46798474 3.93413229 26.34730584 1 24 C-0.32 23.34 -1.64 22.68 -3 22 C-3.33 25.96 -3.66 29.92 -4 34 C-2.68 34 -1.36 34 0 34 C2 37 2 37 1.625 39.1875 C1.41875 39.785625 1.2125 40.38375 1 41 C0.34 39.35 -0.32 37.7 -1 36 C-3.97 36.495 -3.97 36.495 -7 37 C-7 36.01 -7 35.02 -7 34 C-7.83144531 34.97453125 -7.83144531 34.97453125 -8.6796875 35.96875 C-9.40414062 36.8040625 -10.12859375 37.639375 -10.875 38.5 C-11.59429687 39.3353125 -12.31359375 40.170625 -13.0546875 41.03125 C-14.01761719 42.00578125 -14.01761719 42.00578125 -15 43 C-15.66 43 -16.32 43 -17 43 C-16.1875 40.5625 -16.1875 40.5625 -15 38 C-13.515 37.505 -13.515 37.505 -12 37 C-11.67 36.34 -11.34 35.68 -11 35 C-15.53140653 34.06619039 -15.53140653 34.06619039 -20 35 C-18.125 28.125 -18.125 28.125 -17 27 C-15.48071962 26.92820036 -13.95832518 26.91607993 -12.4375 26.9375 C-11.61121094 26.94652344 -10.78492187 26.95554687 -9.93359375 26.96484375 C-8.97646484 26.98224609 -8.97646484 26.98224609 -8 27 C-6.95785309 22.38492226 -6.95785309 22.38492226 -8 18 C-7.34 18 -6.68 18 -6 18 C-6.061875 17.360625 -6.12375 16.72125 -6.1875 16.0625 C-5.83176221 10.25211604 -3.9774516 4.35625651 0 0 Z " fill="#A9A9A3" transform="translate(110,8)"/>
<path d="M0 0 C-1.39190245 3.08549803 -3.04434111 5.37046979 -5.3125 7.875 C-8.28370859 11.19429997 -11.16512646 14.56378965 -14 18 C-13.01 18 -12.02 18 -11 18 C-11 18.99 -11 19.98 -11 21 C-10.34 21.33 -9.68 21.66 -9 22 C-9.86625 22.680625 -9.86625 22.680625 -10.75 23.375 C-13.96581797 27.12678764 -15.34535275 31.38811087 -17 36 C-19.97 35.67 -22.94 35.34 -26 35 C-25.67 34.01 -25.34 33.02 -25 32 C-26.485 32.495 -26.485 32.495 -28 33 C-26.80086322 28.60316512 -25.5711885 25.90159066 -22 23 C-21.34 23 -20.68 23 -20 23 C-20 21.68 -20 20.36 -20 19 C-20.99 18.67 -21.98 18.34 -23 18 C-22.40832031 17.62488281 -21.81664063 17.24976562 -21.20703125 16.86328125 C-16.64312071 13.90753494 -12.71509546 11.00839247 -9 7 C-7.77821329 5.72206992 -6.54863519 4.45155611 -5.3125 3.1875 C-4.73113281 2.58292969 -4.14976563 1.97835937 -3.55078125 1.35546875 C-2 0 -2 0 0 0 Z " fill="#7B989D" transform="translate(130,73)"/>
<path d="M0 0 C2.6875 -0.375 2.6875 -0.375 6 0 C7.2837037 1.47625926 8.56336186 2.96248024 9.7109375 4.546875 C11.68961362 6.77738263 14.2063593 7.14976153 17 8 C18.875 10.125 18.875 10.125 20 12 C17.36 11.67 14.72 11.34 12 11 C10.62766095 15.11701715 9.97890117 18.90286076 10.0625 23.25 C10 26 10 26 8 28 C5.23541484 24.10444818 4.37112669 20.61271232 3.625 15.98828125 C3.10882381 13.61941463 3.10882381 13.61941463 0 12 C0.165 11.071875 0.33 10.14375 0.5 9.1875 C1.06574111 5.58090041 1.15879424 3.47638271 0 0 Z " fill="#80776D" transform="translate(39,58)"/>
<path d="M0 0 C2.15305957 3.85756507 3.39253254 6.55129785 3 11 C4.32 10.34 5.64 9.68 7 9 C7.12375 10.175625 7.12375 10.175625 7.25 11.375 C7.70849401 14.1446618 7.70849401 14.1446618 10 15.125 C10.99 15.558125 10.99 15.558125 12 16 C13.28317892 19.84953676 13.06643637 22.94738135 13 27 C12.34 27 11.68 27 11 27 C11 26.01 11 25.02 11 24 C10.01 24 9.02 24 8 24 C7.34 22.35 6.68 20.7 6 19 C5.34 19 4.68 19 4 19 C3.67 19.66 3.34 20.32 3 21 C-1.20239174 16.0721954 -3 13.55666078 -3 7 C-5.92321965 4.71760829 -5.92321965 4.71760829 -9 3 C-9 2.34 -9 1.68 -9 1 C-5.846632 0.29925156 -3.27275026 0 0 0 Z " fill="#C0BCB5" transform="translate(60,31)"/>
<path d="M0 0 C1.32 0 2.64 0 4 0 C4 0.99 4 1.98 4 3 C6.31 2.34 8.62 1.68 11 1 C10.34 2.32 9.68 3.64 9 5 C10.18424326 6.41577477 10.18424326 6.41577477 13.5625 6.0625 C14.696875 6.041875 15.83125 6.02125 17 6 C13.25 12.875 13.25 12.875 11 14 C11 12.68 11 11.36 11 10 C10.4225 10.474375 9.845 10.94875 9.25 11.4375 C7 13 7 13 4.9375 13.375 C2.00712241 14.32028309 1.35348476 16.36070471 0 19 C-2.31 18.67 -4.62 18.34 -7 18 C-6.67 16.68 -6.34 15.36 -6 14 C-5.34 14 -4.68 14 -4 14 C-3.67 12.68 -3.34 11.36 -3 10 C-2.34 10 -1.68 10 -1 10 C-1.01160156 9.36191406 -1.02320312 8.72382812 -1.03515625 8.06640625 C-1.04417969 7.24011719 -1.05320312 6.41382812 -1.0625 5.5625 C-1.07410156 4.73878906 -1.08570312 3.91507812 -1.09765625 3.06640625 C-1 1 -1 1 0 0 Z " fill="#8C8A80" transform="translate(91,72)"/>
<path d="M0 0 C-3.09778951 2.89127021 -6.0135312 4.48746628 -9.9375 5.9375 C-14.51223658 7.67180312 -17.53996295 9.53996295 -21 13 C-21.33 13.99 -21.66 14.98 -22 16 C-21.34 16 -20.68 16 -20 16 C-19.67 15.01 -19.34 14.02 -19 13 C-17.875 18.75 -17.875 18.75 -19 21 C-19.66 21 -20.32 21 -21 21 C-21.103125 21.598125 -21.20625 22.19625 -21.3125 22.8125 C-22.08876455 25.28243264 -23.07088921 26.32251235 -25 28 C-26.32 27.34 -27.64 26.68 -29 26 C-28.67 21.38 -28.34 16.76 -28 12 C-26.35 12 -24.7 12 -23 12 C-21.44746845 10.12676031 -21.44746845 10.12676031 -20.3125 7.6875 C-17.98453051 3.87155 -16.35886048 2.26546597 -12.0625 0.9375 C-7.96422838 0.00748375 -4.18513102 -0.27294333 0 0 Z " fill="#847364" transform="translate(109,61)"/>
<path d="M0 0 C1.32 0 2.64 0 4 0 C4 0.66 4 1.32 4 2 C4.99 2.33 5.98 2.66 7 3 C6.01 3.66 5.02 4.32 4 5 C2.78715124 8.05429073 2.78715124 8.05429073 2 11 C2.7425 10.62875 3.485 10.2575 4.25 9.875 C7 9 7 9 9.3125 9.875 C9.869375 10.24625 10.42625 10.6175 11 11 C10.67 11.99 10.34 12.98 10 14 C9.05125 14.309375 8.1025 14.61875 7.125 14.9375 C3.64146684 16.12190127 2.99338378 17.05738584 1 20 C-1.75078884 20.91692961 -3.35948913 21.10886083 -6.1875 21.0625 C-8.0746875 21.0315625 -8.0746875 21.0315625 -10 21 C-9.75 17.625 -9.75 17.625 -9 14 C-7.0625 12.75 -7.0625 12.75 -5 12 C-4.34 11.01 -3.68 10.02 -3 9 C-2.34 9 -1.68 9 -1 9 C-0.71125 8.236875 -0.4225 7.47375 -0.125 6.6875 C1 4 1 4 3 1 C2.01 0.67 1.02 0.34 0 0 Z " fill="#C5BDB5" transform="translate(88,32)"/>
<path d="M0 0 C0.66 0 1.32 0 2 0 C2.6875 3.3125 2.6875 3.3125 3 7 C1.5625 8.9375 1.5625 8.9375 0 10 C0.99 10 1.98 10 3 10 C3 12.64 3 15.28 3 18 C-1.24551856 19.09587955 -4.9592839 18.92865836 -9.3125 18.5625 C-10.56675781 18.46066406 -11.82101563 18.35882813 -13.11328125 18.25390625 C-14.06589844 18.17011719 -15.01851562 18.08632812 -16 18 C-13.91878116 15.91001813 -11.83039626 13.83956403 -9.6875 11.8125 C-6.6766613 8.6616223 -4.13081391 5.29975371 -1.55078125 1.79296875 C-1.03902344 1.20128906 -0.52726562 0.60960938 0 0 Z " fill="#CFC8C4" transform="translate(62,105)"/>
<path d="M0 0 C3 1 3 1 4.60546875 3.58203125 C5.12753906 4.64808594 5.64960937 5.71414063 6.1875 6.8125 C6.71730469 7.87082031 7.24710938 8.92914063 7.79296875 10.01953125 C9 13 9 13 9 17 C11.64 17 14.28 17 17 17 C17.495 18.485 17.495 18.485 18 20 C17.67 20.66 17.34 21.32 17 22 C15.02 22 13.04 22 11 22 C11 21.34 11 20.68 11 20 C11.99 20 12.98 20 14 20 C14 19.34 14 18.68 14 18 C11.36 18 8.72 18 6 18 C6 18.66 6 19.32 6 20 C4.02 19.67 2.04 19.34 0 19 C-0.5259375 19.86625 -0.5259375 19.86625 -1.0625 20.75 C-3.19370836 23.22495165 -5.43117721 24.40573785 -8.29296875 25.91796875 C-10.75694539 27.47980291 -12.22510463 29.71799167 -14 32 C-14.99 32 -15.98 32 -17 32 C-16.34 30.68 -15.68 29.36 -15 28 C-14.34 28 -13.68 28 -13 28 C-12.94328125 27.43667969 -12.8865625 26.87335937 -12.828125 26.29296875 C-11.62124045 22.95126483 -9.48964754 21.52839139 -6.75 19.3125 C-5.79609375 18.52488281 -4.8421875 17.73726562 -3.859375 16.92578125 C-1.07847468 15.05285248 0.70718958 14.35451791 4 14 C3.71572583 12.41532272 3.42225182 10.8322943 3.125 9.25 C2.88136719 7.92742188 2.88136719 7.92742188 2.6328125 6.578125 C2.03203736 4.13052256 1.22002883 2.19400143 0 0 Z " fill="#7D7E7D" transform="translate(39,8)"/>
<path d="M0 0 C1.49080078 0.16628906 1.49080078 0.16628906 3.01171875 0.3359375 C3.77097656 0.43132812 4.53023437 0.52671875 5.3125 0.625 C5.3125 1.945 5.3125 3.265 5.3125 4.625 C6.9625 4.295 8.6125 3.965 10.3125 3.625 C10.3125 4.615 10.3125 5.605 10.3125 6.625 C9.55324219 7.02332031 8.79398438 7.42164062 8.01171875 7.83203125 C7.01785156 8.36183594 6.02398437 8.89164063 5 9.4375 C4.01386719 9.95957031 3.02773438 10.48164062 2.01171875 11.01953125 C-0.30415068 12.3969876 -1.92361001 13.62030591 -3.6875 15.625 C-4.120625 14.696875 -4.55375 13.76875 -5 12.8125 C-6.42205984 9.67977886 -6.42205984 9.67977886 -8.4375 8.0625 C-9.6875 6.625 -9.6875 6.625 -9.5625 4.0625 C-7.77361904 -0.92081126 -4.5761752 -0.53837355 0 0 Z " fill="#BDBEB6" transform="translate(59.6875,81.375)"/>
<path d="M0 0 C2.29378439 0.25166913 4.53938803 0.58652439 6.8046875 1.0234375 C6.49144531 1.64347656 6.17820312 2.26351562 5.85546875 2.90234375 C5.19465372 4.23625661 4.56787793 5.58813724 3.9921875 6.9609375 C1.97968686 10.45633334 -0.51432862 13.50980354 -4.4453125 14.7109375 C-5.0228125 14.8140625 -5.6003125 14.9171875 -6.1953125 15.0234375 C-6.5253125 15.6834375 -6.8553125 16.3434375 -7.1953125 17.0234375 C-8.8453125 16.6934375 -10.4953125 16.3634375 -12.1953125 16.0234375 C-11.61946818 13.63779673 -10.97303655 11.35660966 -10.1953125 9.0234375 C-9.2053125 9.0234375 -8.2153125 9.0234375 -7.1953125 9.0234375 C-6.793125 7.9096875 -6.793125 7.9096875 -6.3828125 6.7734375 C-3.47393442 0.03708827 -3.47393442 0.03708827 0 0 Z " fill="#898077" transform="translate(84.1953125,31.9765625)"/>
<path d="M0 0 C0.99 0 1.98 0 3 0 C5 4 7 8 9 12 C8.01 12.99 7.02 13.98 6 15 C6 14.01 6 13.02 6 12 C-1.11778518 10.87932744 -7.02420757 11.2041045 -14 13 C-13.67 12.01 -13.34 11.02 -13 10 C-12.175 9.690625 -11.35 9.38125 -10.5 9.0625 C-9.675 8.711875 -8.85 8.36125 -8 8 C-7.33820153 6.01954441 -7.33820153 6.01954441 -7 4 C-4 2 -4 2 0 2 C0 1.34 0 0.68 0 0 Z " fill="#837A6E" transform="translate(106,44)"/>
<path d="M0 0 C0.66 0 1.32 0 2 0 C1.67 1.65 1.34 3.3 1 5 C1.680625 4.71125 2.36125 4.4225 3.0625 4.125 C8.85875846 1.90515633 13.76200805 0.74538808 20 1 C20 1.66 20 2.32 20 3 C20.99 3 21.98 3 23 3 C22.67 4.32 22.34 5.64 22 7 C19.37700199 7.69608034 16.7520793 8.38215382 14.125 9.0625 C13.37863281 9.26166016 12.63226563 9.46082031 11.86328125 9.66601562 C6.2265625 11.11328125 6.2265625 11.11328125 4 10 C4.99 9.01 5.98 8.02 7 7 C3.39007621 7.65585189 3.39007621 7.65585189 0 9 C-0.33 7.68 -0.66 6.36 -1 5 C-2.32 5.33 -3.64 5.66 -5 6 C-3.38405168 3.95880212 -1.7143618 1.95927063 0 0 Z " fill="#B2ACA4" transform="translate(89,53)"/>
<path d="M0 0 C2 1 2 1 2.8515625 3.06640625 C3.10679688 3.89011719 3.36203125 4.71382812 3.625 5.5625 C3.88539062 6.38878906 4.14578125 7.21507812 4.4140625 8.06640625 C4.60742188 8.70449219 4.80078125 9.34257813 5 10 C3.35 9.67 1.7 9.34 0 9 C0.33 10.32 0.66 11.64 1 13 C0.34 13 -0.32 13 -1 13 C-0.67 14.65 -0.34 16.3 0 18 C-0.66 18.33 -1.32 18.66 -2 19 C-2.33 19.99 -2.66 20.98 -3 22 C-4.65 21.67 -6.3 21.34 -8 21 C-8 20.01 -8 19.02 -8 18 C-7.34 18 -6.68 18 -6 18 C-6.391875 16.783125 -6.78375 15.56625 -7.1875 14.3125 C-7.94107833 11.25512507 -8.12865316 10.32541681 -6.9375 7.3125 C-4.75997532 4.71351894 -2.46280516 2.32968056 0 0 Z " fill="#C4BEB6" transform="translate(42,33)"/>
<path d="M0 0 C4.93475119 0.62356333 8.16237453 1.21700227 11.875 4.6875 C14.02576781 8.04016746 15.52292891 11.30732227 17 15 C17.96817992 16.68535024 18.95650161 18.36021682 20 20 C19.195625 19.690625 18.39125 19.38125 17.5625 19.0625 C13.92358513 17.9772096 10.72396481 17.68014834 6.953125 17.5390625 C5 17 5 17 3.734375 14.9609375 C3.49203125 14.31382813 3.2496875 13.66671875 3 13 C5.25 11.875 5.25 11.875 8 11 C10.3125 11.875 10.3125 11.875 12 13 C10.6078125 11.8553125 10.6078125 11.8553125 9.1875 10.6875 C7.01234478 8.87997665 4.99949564 6.99949564 3 5 C2.01 4.34 1.02 3.68 0 3 C0 2.01 0 1.02 0 0 Z " fill="#A9B3AE" transform="translate(32,75)"/>
<path d="M0 0 C1.69752187 0.25245197 3.38471545 0.57645775 5.0625 0.9375 C5.98160156 1.13214844 6.90070312 1.32679687 7.84765625 1.52734375 C8.91306641 1.76130859 8.91306641 1.76130859 10 2 C11 5 11 5 9.5625 8.1875 C8.7890625 9.5796875 8.7890625 9.5796875 8 11 C4.84280757 11.47357886 2.70338883 11.41726456 -0.07421875 9.76953125 C-3.27263938 7.37514981 -6.21738216 4.868767 -9 2 C-6.94921875 1.77213542 -4.8984375 1.54427083 -2.84765625 1.31640625 C-0.98859771 1.18113386 -0.98859771 1.18113386 0 0 Z " fill="#B1B5AE" transform="translate(45,97)"/>
<path d="M0 0 C1 2 1 2 0.4765625 3.875 C0.05503906 4.926875 0.05503906 4.926875 -0.375 6 C-0.65085937 6.70125 -0.92671875 7.4025 -1.2109375 8.125 C-1.76277726 9.43630239 -2.3637546 10.72750919 -3 12 C-3 12.99 -3 13.98 -3 15 C-2.01 15.33 -1.02 15.66 0 16 C-2.85276137 18.93200474 -5.65079784 21.64315404 -9 24 C-9.66 23.67 -10.32 23.34 -11 23 C-10.01 22.67 -9.02 22.34 -8 22 C-8.45375 20.7625 -8.9075 19.525 -9.375 18.25 C-10.71135033 12.42202773 -8.42563576 8.52952078 -5.7734375 3.40625 C-4 1 -4 1 -1.7890625 0.15625 C-1.19867188 0.1046875 -0.60828125 0.053125 0 0 Z " fill="#8EA1A1" transform="translate(118,67)"/>
<path d="M0 0 C0 1.32 0 2.64 0 4 C-0.61875 4.061875 -1.2375 4.12375 -1.875 4.1875 C-4.24379837 4.81891092 -4.24379837 4.81891092 -5.1875 7.375 C-5.455625 8.24125 -5.72375 9.1075 -6 10 C-6.33 10.99 -6.66 11.98 -7 13 C-6.34 13 -5.68 13 -5 13 C-5.66 14.65 -6.32 16.3 -7 18 C-9.77400546 16.61299727 -10.42972831 14.65738286 -12 12 C-12.721875 11.113125 -13.44375 10.22625 -14.1875 9.3125 C-16 7 -16 7 -16 5 C-14.08717875 4.15787744 -12.16957527 3.32661136 -10.25 2.5 C-9.18265625 2.0359375 -8.1153125 1.571875 -7.015625 1.09375 C-4 0 -4 0 0 0 Z " fill="#827365" transform="translate(110,92)"/>
<path d="M0 0 C0.66 0 1.32 0 2 0 C2.0825 0.78375 2.165 1.5675 2.25 2.375 C2.72806339 5.14749104 2.72806339 5.14749104 5.0625 6.3125 C5.701875 6.539375 6.34125 6.76625 7 7 C7 8.65 7 10.3 7 12 C5.68 11.67 4.36 11.34 3 11 C2.67 11.66 2.34 12.32 2 13 C2.66 13 3.32 13 4 13 C4.33 14.65 4.66 16.3 5 18 C1.59687262 16.94124926 -1.01353231 15.99097846 -4 14 C-4 13.01 -4 12.02 -4 11 C-3.34 11 -2.68 11 -2 11 C-2.99 8.03 -3.98 5.06 -5 2 C-3.68 2.33 -2.36 2.66 -1 3 C-0.67 2.01 -0.34 1.02 0 0 Z " fill="#C4BFB8" transform="translate(64,54)"/>
<path d="M0 0 C2.99254618 1.40191353 5.5954611 3.03367489 8.25 5 C8.95640625 5.515625 9.6628125 6.03125 10.390625 6.5625 C11.18726563 7.2740625 11.18726563 7.2740625 12 8 C12 8.66 12 9.32 12 10 C5.73 10 -0.54 10 -7 10 C-7 9.34 -7 8.68 -7 8 C-6.34 8 -5.68 8 -5 8 C-5 6.68 -5 5.36 -5 4 C-2.5 1.75 -2.5 1.75 0 0 Z " fill="#C8B3AD" transform="translate(96,113)"/>
<path d="M0 0 C2.64 0 5.28 0 8 0 C8 0.66 8 1.32 8 2 C6.02 2.33 4.04 2.66 2 3 C2.2165625 3.54269531 2.433125 4.08539063 2.65625 4.64453125 C2.9346875 5.35996094 3.213125 6.07539062 3.5 6.8125 C3.91765625 7.87404297 3.91765625 7.87404297 4.34375 8.95703125 C5 11 5 11 5 14 C8.93075644 13.42547254 8.93075644 13.42547254 12 11 C13.29676812 15.61073111 12.71109139 19.33840089 12 24 C5.78699526 19.39260323 2.12859725 14.71958851 0.3125 7.125 C0.209375 6.42375 0.10625 5.7225 0 5 C-0.83333333 2.83333333 -0.83333333 2.83333333 -3 2 C-2.01 2 -1.02 2 0 2 C0 1.34 0 0.68 0 0 Z " fill="#A7ADA6" transform="translate(45,26)"/>
<path d="M0 0 C4.28052969 0.5691779 7.09503685 2.08009922 10.6875 4.4375 C11.64011719 5.05496094 12.59273437 5.67242187 13.57421875 6.30859375 C16 8 16 8 18 10 C19.98821313 10.39764263 21.98944339 10.73775349 24 11 C23.67 11.99 23.34 12.98 23 14 C16.82777121 12.75971762 10.93317878 11.10396411 5 9 C4.67 7.02 4.34 5.04 4 3 C2.68 3 1.36 3 0 3 C0 2.01 0 1.02 0 0 Z " fill="#798381" transform="translate(29,97)"/>
<path d="M0 0 C3.3 0 6.6 0 10 0 C6.94117647 6.11764706 6.94117647 6.11764706 2 8 C1.01 8.66 0.02 9.32 -1 10 C-1.66 9.67 -2.32 9.34 -3 9 C-3.33 9.66 -3.66 10.32 -4 11 C-7 7.25 -7 7.25 -7 5 C-6.030625 4.54625 -5.06125 4.0925 -4.0625 3.625 C-0.92920418 2.34213779 -0.92920418 2.34213779 0 0 Z " fill="#8F8C84" transform="translate(77,54)"/>
<path d="M0 0 C0.66 0 1.32 0 2 0 C1.94004678 1.79260132 1.8512759 3.58425795 1.75 5.375 C1.68039063 6.87160156 1.68039063 6.87160156 1.609375 8.3984375 C1 11 1 11 -0.859375 12.3515625 C-3 13 -3 13 -6 13 C-6.33 12.34 -6.66 11.68 -7 11 C-7.99 10.34 -8.98 9.68 -10 9 C-7.46075086 4.67387183 -5.86367438 2.44595725 -1 1 C-0.67 0.67 -0.34 0.34 0 0 Z " fill="#817667" transform="translate(100,82)"/>
<path d="M0 0 C-3.11474718 6.8372499 -8.70125747 11.96404332 -14.421875 16.6796875 C-16.40343594 18.33752809 -18.21023478 20.13864417 -20 22 C-20 21.01 -20 20.02 -20 19 C-20.99 18.67 -21.98 18.34 -23 18 C-22.40832031 17.62488281 -21.81664063 17.24976562 -21.20703125 16.86328125 C-16.64312071 13.90753494 -12.71509546 11.00839247 -9 7 C-7.77821329 5.72206992 -6.54863519 4.45155611 -5.3125 3.1875 C-4.73113281 2.58292969 -4.14976563 1.97835937 -3.55078125 1.35546875 C-2 0 -2 0 0 0 Z " fill="#809292" transform="translate(130,73)"/>
<path d="M0 0 C-2.51173709 3.89319249 -2.51173709 3.89319249 -5 4.4375 C-7.30257789 4.85407591 -7.30257789 4.85407591 -8.75 7.5625 C-9.1625 8.366875 -9.575 9.17125 -10 10 C-12.31 9.67 -14.62 9.34 -17 9 C-16.67 7.68 -16.34 6.36 -16 5 C-15.34 5 -14.68 5 -14 5 C-13.67 3.68 -13.34 2.36 -13 1 C-11.39796533 0.63631108 -9.79325797 0.28438048 -8.1875 -0.0625 C-7.29417969 -0.25972656 -6.40085937 -0.45695312 -5.48046875 -0.66015625 C-3 -1 -3 -1 0 0 Z " fill="#B7B7AE" transform="translate(101,81)"/>
<path d="M0 0 C0.33 1.32 0.66 2.64 1 4 C2.65 4.33 4.3 4.66 6 5 C6 8 6 8 4.3125 10.0625 C1.93926222 12.05088841 -0.08060173 13.02686724 -3 14 C-4 13 -4 13 -4.09765625 10.27734375 C-4.08605469 9.17519531 -4.07445313 8.07304688 -4.0625 6.9375 C-4.05347656 5.83277344 -4.04445313 4.72804688 -4.03515625 3.58984375 C-4.02355469 2.73519531 -4.01195313 1.88054687 -4 1 C-3.34 2.32 -2.68 3.64 -2 5 C-1.34 3.35 -0.68 1.7 0 0 Z " fill="#795B51" transform="translate(91,105)"/>
<path d="M0 0 C-3.09778951 2.89127021 -6.0135312 4.48746628 -9.9375 5.9375 C-14.49176709 7.6462011 -17.48179151 9.66696038 -21 13 C-21.66 12.67 -22.32 12.34 -23 12 C-20.85508935 7.84096593 -18.85501364 3.98690381 -14.62109375 1.734375 C-9.70343858 0.20276942 -5.12589759 -0.33429767 0 0 Z " fill="#8B7368" transform="translate(109,61)"/>
<path d="M0 0 C4.24822374 0.47202486 6.19989709 2.96655518 9 6 C8.1654738 8.50357861 7.20628008 10.66785852 6 13 C5.21625 12.814375 4.4325 12.62875 3.625 12.4375 C1.02910225 11.74037734 1.02910225 11.74037734 -1 13 C-1.66 12.34 -2.32 11.68 -3 11 C-1.35 10.67 0.3 10.34 2 10 C1.67 8.02 1.34 6.04 1 4 C0.01 3.67 -0.98 3.34 -2 3 C-1.34 2.67 -0.68 2.34 0 2 C0 1.34 0 0.68 0 0 Z " fill="#BEBBB4" transform="translate(33,56)"/>
<path d="M0 0 C0.66 0 1.32 0 2 0 C1.98952637 0.6391333 1.97905273 1.2782666 1.96826172 1.93676758 C1.92611505 4.89530335 1.90049055 7.85377561 1.875 10.8125 C1.85824219 11.81732422 1.84148437 12.82214844 1.82421875 13.85742188 C1.77963976 20.78945544 2.51733934 27.22940584 4 34 C2.515 34.495 2.515 34.495 1 35 C-0.69436348 27.21456779 -1.28490524 19.83146991 -1.1875 11.875 C-1.18685547 10.83601563 -1.18621094 9.79703125 -1.18554688 8.7265625 C-1.14086673 1.14086673 -1.14086673 1.14086673 0 0 Z " fill="#272526" transform="translate(1,63)"/>
<path d="M0 0 C0.99 0.33 1.98 0.66 3 1 C2.01 1.33 1.02 1.66 0 2 C-0.33 4.64 -0.66 7.28 -1 10 C-3.01822917 9.96744792 -5.03645833 9.93489583 -7.0546875 9.90234375 C-9.08185404 9.87350758 -9.08185404 9.87350758 -11 11 C-11.33 9.68 -11.66 8.36 -12 7 C-12.66 7 -13.32 7 -14 7 C-13.67 6.01 -13.34 5.02 -13 4 C-12.34 4 -11.68 4 -11 4 C-11 4.66 -11 5.32 -11 6 C-10.34 6 -9.68 6 -9 6 C-8.67 5.01 -8.34 4.02 -8 3 C-6.68 3 -5.36 3 -4 3 C-3.319375 2.484375 -2.63875 1.96875 -1.9375 1.4375 C-1.298125 0.963125 -0.65875 0.48875 0 0 Z " fill="#ADA79F" transform="translate(80,60)"/>
<path d="M0 0 C0.66 0 1.32 0 2 0 C2.33 2.31 2.66 4.62 3 7 C1.25 8.5625 1.25 8.5625 -1 10 C-3.25 9.6875 -3.25 9.6875 -5 9 C-5.20625 9.556875 -5.4125 10.11375 -5.625 10.6875 C-7.60413167 14.01603962 -9.84025696 15.74304069 -13 18 C-13.99 17.67 -14.98 17.34 -16 17 C-14.96875 16.34 -13.9375 15.68 -12.875 15 C-7.89998726 11.46512253 -4.87110308 6.71687948 -1.453125 1.75390625 C-0.97359375 1.17511719 -0.4940625 0.59632812 0 0 Z " fill="#CAB8B2" transform="translate(62,105)"/>
<path d="M0 0 C0.37254569 3.35291118 0.31050198 4.6038423 -1.8125 7.3125 C-4 9 -4 9 -7 9 C-7 8.01 -7 7.02 -7 6 C-9.49552484 6.78130071 -9.49552484 6.78130071 -12 8 C-12.33 8.99 -12.66 9.98 -13 11 C-13.66 11 -14.32 11 -15 11 C-14.75006984 7.62594278 -13.76721161 6.7777929 -11.25 4.375 C-7.67923085 1.59202644 -4.5978442 0 0 0 Z " fill="#A75453" transform="translate(102,66)"/>
<path d="M0 0 C0.0825 0.61875 0.165 1.2375 0.25 1.875 C0.8125 4.14583333 0.8125 4.14583333 2.875 5.25 C5.09591691 6.16641006 5.09591691 6.16641006 8 6 C10.01151741 6.63106429 12.01363702 7.29373761 14 8 C13.67 9.65 13.34 11.3 13 13 C6.60485349 12.40510265 3.29951909 9.52580957 -1 5 C-1.33 5.99 -1.66 6.98 -2 8 C-2 6.35 -2 4.7 -2 3 C-1.34 3 -0.68 3 0 3 C0 2.01 0 1.02 0 0 Z " fill="#BEBDB6" transform="translate(25,61)"/>
<path d="M0 0 C1.65 0.33 3.3 0.66 5 1 C5.12375 1.804375 5.2475 2.60875 5.375 3.4375 C5.684375 4.7059375 5.684375 4.7059375 6 6 C6.66 6.33 7.32 6.66 8 7 C8 7.99 8 8.98 8 10 C6.72125 10.061875 5.4425 10.12375 4.125 10.1875 C3.40570313 10.22230469 2.68640625 10.25710937 1.9453125 10.29296875 C1.30335937 10.19628906 0.66140625 10.09960938 0 10 C-2 7 -2 7 -2 3 C-1.34 3 -0.68 3 0 3 C0 2.01 0 1.02 0 0 Z " fill="#BBB5AE" transform="translate(52,70)"/>
<path d="M0 0 C0.99 0 1.98 0 3 0 C3 0.66 3 1.32 3 2 C6.3 2 9.6 2 13 2 C12.38125 2.7425 11.7625 3.485 11.125 4.25 C9.39562719 6.48801188 8.13893339 8.43739987 7 11 C6.34 10.67 5.68 10.34 5 10 C4.01 12.31 3.02 14.62 2 17 C0.76406109 13.29218328 1.4321868 12.32489747 2.9375 8.8125 C3.31777344 7.91144531 3.69804687 7.01039062 4.08984375 6.08203125 C4.54037109 5.05142578 4.54037109 5.05142578 5 4 C2.69 4.33 0.38 4.66 -2 5 C-1.34 3.35 -0.68 1.7 0 0 Z " fill="#7E7571" transform="translate(12,42)"/>
<path d="M0 0 C0.8353125 1.051875 0.8353125 1.051875 1.6875 2.125 C2.88307476 3.61139024 4.08373303 5.0951733 5.34375 6.52734375 C9.88681128 11.71752713 9.88681128 11.71752713 10 15 C9.01 16.485 9.01 16.485 8 18 C5.66666667 15.66666667 3.33333333 13.33333333 1 11 C1.66 10.67 2.32 10.34 3 10 C1.35 7.69 -0.3 5.38 -2 3 C-1 1 -1 1 0 0 Z " fill="#8C978E" transform="translate(48,84)"/>
<path d="M0 0 C0.66 0.33 1.32 0.66 2 1 C-1.34821429 7.96428571 -1.34821429 7.96428571 -5.5 10.125 C-9.09573733 12.05128785 -10.54589037 13.84471619 -13 17 C-13.99 17 -14.98 17 -16 17 C-15.34 15.68 -14.68 14.36 -14 13 C-13.34 13 -12.68 13 -12 13 C-11.94972656 12.43796875 -11.89945313 11.8759375 -11.84765625 11.296875 C-10.58927861 7.88707752 -8.27052838 6.46432103 -5.4375 4.25 C-3.91962891 3.05117188 -3.91962891 3.05117188 -2.37109375 1.828125 C-1.58863281 1.22484375 -0.80617188 0.6215625 0 0 Z " fill="#8C8481" transform="translate(38,23)"/>
<path d="M0 0 C2.97 0.33 5.94 0.66 9 1 C9 1.66 9 2.32 9 3 C7.35 3 5.7 3 4 3 C4 3.66 4 4.32 4 5 C6.475 5.99 6.475 5.99 9 7 C8.625 8.9375 8.625 8.9375 8 11 C7.01 11.495 7.01 11.495 6 12 C3 11 3 11 1.3125 7.6875 C0 4 0 4 0 0 Z " fill="#908B84" transform="translate(47,29)"/>
<path d="M0 0 C2.15305957 3.85756507 3.39253254 6.55129785 3 11 C-0.71171927 9.76276024 -2.2553349 7.7446651 -5 5 C-7.16620544 3.70480005 -7.16620544 3.70480005 -9 3 C-9 2.34 -9 1.68 -9 1 C-5.846632 0.29925156 -3.27275026 0 0 0 Z " fill="#BCB6AD" transform="translate(60,31)"/>
<path d="M0 0 C3.04311974 0.49347888 6.01697727 1.22662374 9 2 C8.67 3.32 8.34 4.64 8 6 C4.34543185 6.75241109 0.68266103 7.40049704 -3 8 C-1.125 1.125 -1.125 1.125 0 0 Z " fill="#8E867C" transform="translate(93,35)"/>
<path d="M0 0 C2.9375 1.125 2.9375 1.125 6 3 C6.875 6.1875 6.875 6.1875 7 9 C4.1875 9.625 4.1875 9.625 1 10 C0.01 9.34 -0.98 8.68 -2 8 C-1.125 2.25 -1.125 2.25 0 0 Z " fill="#99A39E" transform="translate(28,57)"/>
<path d="M0 0 C2.8125 -0.3125 2.8125 -0.3125 6 0 C7.875 2.5 7.875 2.5 9 5 C7.68 5 6.36 5 5 5 C4.67 7.97 4.34 10.94 4 14 C2.68 13.34 1.36 12.68 0 12 C0.165 11.071875 0.33 10.14375 0.5 9.1875 C1.06574111 5.58090041 1.15879424 3.47638271 0 0 Z " fill="#8A877E" transform="translate(39,58)"/>
<path d="M0 0 C1.44010481 0.25662245 2.8770687 0.53090821 4.3125 0.8125 C5.11300781 0.96332031 5.91351563 1.11414063 6.73828125 1.26953125 C9.27840652 2.08991713 10.38738182 2.89119161 12 5 C12.1875 7.6875 12.1875 7.6875 12 10 C7.63075156 9.51452795 5.92016585 8.21218243 3 5 C2.01 4.34 1.02 3.68 0 3 C0 2.01 0 1.02 0 0 Z " fill="#C0BFB9" transform="translate(32,75)"/>
<path d="M0 0 C2.875 0.75 2.875 0.75 6 2 C6.68268138 3.32520503 7.3507041 4.65812182 8 6 C10.55519921 6.81171228 10.55519921 6.81171228 13 7 C13.33 7.99 13.66 8.98 14 10 C10.8125 10.375 10.8125 10.375 7 10 C4.7527123 8.19771976 3.62056576 6.45540267 2 4 C2 3.34 2 2.68 2 2 C1.01 1.67 0.02 1.34 -1 1 C-0.67 0.67 -0.34 0.34 0 0 Z " fill="#BCBBB3" transform="translate(43,55)"/>
<path d="M0 0 C3.73639216 1.24546405 4.18756513 2.63404953 6 6 C6.99 5.67 7.98 5.34 9 5 C9.66 6.65 10.32 8.3 11 10 C11.99 10 12.98 10 14 10 C14 10.99 14 11.98 14 13 C14.66 13.33 15.32 13.66 16 14 C14.1875 14.6875 14.1875 14.6875 12 15 C10.25 13.75 10.25 13.75 9 12 C9 11.01 9 10.02 9 9 C7.02 9.99 7.02 9.99 5 11 C4.731875 10.2575 4.46375 9.515 4.1875 8.75 C3.05593565 6.12953519 1.71182842 4.2565011 0 2 C0 1.34 0 0.68 0 0 Z " fill="#9FA19A" transform="translate(57,45)"/>
<path d="M0 0 C0.66 0.33 1.32 0.66 2 1 C1.525625 1.825 1.05125 2.65 0.5625 3.5 C-1.23569599 7.52795901 -1.6234255 10.63173579 -2 15 C-0.88625 14.87625 -0.88625 14.87625 0.25 14.75 C3.78157027 15.07105184 4.76630364 16.35265617 7 19 C6.443125 18.855625 5.88625 18.71125 5.3125 18.5625 C0.70663689 17.40516376 0.70663689 17.40516376 -4 17 C-4.33 17.66 -4.66 18.32 -5 19 C-5.99 18.67 -6.98 18.34 -8 18 C-7.34 18 -6.68 18 -6 18 C-6.061875 17.360625 -6.12375 16.72125 -6.1875 16.0625 C-5.83176221 10.25211604 -3.9774516 4.35625651 0 0 Z " fill="#676263" transform="translate(110,8)"/>
<path d="M0 0 C1.32 0 2.64 0 4 0 C4 0.66 4 1.32 4 2 C4.99 2.33 5.98 2.66 7 3 C6.01 3.66 5.02 4.32 4 5 C2.78715124 8.05429073 2.78715124 8.05429073 2 11 C2.66 11.33 3.32 11.66 4 12 C2.35 13.32 0.7 14.64 -1 16 C-1.12375 15.195625 -1.2475 14.39125 -1.375 13.5625 C-1.684375 12.2940625 -1.684375 12.2940625 -2 11 C-2.66 10.67 -3.32 10.34 -4 10 C-3.01 9.67 -2.02 9.34 -1 9 C0.10636395 6.60931266 0.10636395 6.60931266 1 4 C1.66 3.01 2.32 2.02 3 1 C2.01 0.67 1.02 0.34 0 0 Z " fill="#B1A79D" transform="translate(88,32)"/>
<path d="M0 0 C1.63885071 1.39985164 3.27678227 2.80079312 4.91015625 4.20703125 C6.34885035 5.44135012 7.79460656 6.66746951 9.24609375 7.88671875 C9.96925781 8.50160156 10.69242188 9.11648437 11.4375 9.75 C12.11683594 10.32234375 12.79617187 10.8946875 13.49609375 11.484375 C15 13 15 13 15 15 C12.52105044 13.89824464 10.6754554 12.733707 8.5625 11 C6.08071863 9.06299991 3.95836218 8.01429561 1 7 C1 8.65 1 10.3 1 12 C0.67 12 0.34 12 0 12 C0 8.04 0 4.08 0 0 Z " fill="#A69C97" transform="translate(105,23)"/>
<path d="M0 0 C1.134375 0.020625 2.26875 0.04125 3.4375 0.0625 C3.4375 0.3925 3.4375 0.7225 3.4375 1.0625 C1.7875 1.3925 0.1375 1.7225 -1.5625 2.0625 C-0.2425 2.3925 1.0775 2.7225 2.4375 3.0625 C2.4375 5.0425 2.4375 7.0225 2.4375 9.0625 C-0.4375 9.25 -0.4375 9.25 -3.5625 9.0625 C-5.5625 6.0625 -5.5625 6.0625 -5.25 3.4375 C-4.16890523 -0.29719104 -4.15169538 0.07283676 0 0 Z " fill="#9E6B69" transform="translate(74.5625,68.9375)"/>
<path d="M0 0 C0.33 1.32 0.66 2.64 1 4 C2.65 3.34 4.3 2.68 6 2 C5.67708984 2.56388428 5.35417969 3.12776855 5.02148438 3.70874023 C3.90672557 6.20922096 3.72004249 7.93715172 3.65625 10.66015625 C3.62660156 11.53607422 3.59695312 12.41199219 3.56640625 13.31445312 C3.52204108 15.15038835 3.47777064 16.98632586 3.43359375 18.82226562 C3.40394531 19.69689453 3.37429687 20.57152344 3.34375 21.47265625 C3.32505859 22.26937744 3.30636719 23.06609863 3.28710938 23.88696289 C3 26 3 26 1 29 C1.33 22.4 1.66 15.8 2 9 C0.68 9.33 -0.64 9.66 -2 10 C-1.34 6.7 -0.68 3.4 0 0 Z " fill="#939090" transform="translate(139,58)"/>
<path d="M0 0 C-0.33 1.65 -0.66 3.3 -1 5 C-1.66 5 -2.32 5 -3 5 C-3.2475 5.78375 -3.495 6.5675 -3.75 7.375 C-5.15389099 10.32317108 -6.00675737 10.9024777 -9 12 C-8.82513139 6.75394171 -8.82513139 6.75394171 -8 4 C-3.3 0 -3.3 0 0 0 Z " fill="#C8C1B8" transform="translate(88,58)"/>
<path d="M0 0 C1.33332095 2.6666419 0.67102033 4.16680303 0 7 C1.98 7 3.96 7 6 7 C6 7.33 6 7.66 6 8 C3.69 8 1.38 8 -1 8 C-1.66 9.32 -2.32 10.64 -3 12 C-3.66 12 -4.32 12 -5 12 C-5.33 8.7 -5.66 5.4 -6 2 C-3.525 2.495 -3.525 2.495 -1 3 C-0.67 2.01 -0.34 1.02 0 0 Z " fill="#9E9E98" transform="translate(78,46)"/>
<path d="M0 0 C1.33332095 2.6666419 0.67102033 4.16680303 0 7 C-0.66 7 -1.32 7 -2 7 C-2.33 9.64 -2.66 12.28 -3 15 C-9.625 15.125 -9.625 15.125 -13 14 C-13.33 14.66 -13.66 15.32 -14 16 C-14.33 15.01 -14.66 14.02 -15 13 C-11.30458414 12.04975021 -8.69541586 12.04975021 -5 13 C-4.9175 12.34 -4.835 11.68 -4.75 11 C-3.75240209 7.00960837 -1.92833317 3.61450357 0 0 Z " fill="#AAB4B3" transform="translate(118,96)"/>
<path d="M0 0 C3.96 0 7.92 0 12 0 C12 0.33 12 0.66 12 1 C10.6696875 1.0928125 10.6696875 1.0928125 9.3125 1.1875 C5.18488945 2.19993278 3.70016207 3.77480642 1 7 C-0.29519995 9.16620544 -0.29519995 9.16620544 -1 11 C-1.33 10.01 -1.66 9.02 -2 8 C-2.99 8 -3.98 8 -5 8 C-4.67 7.34 -4.34 6.68 -4 6 C-3.01 6 -2.02 6 -1 6 C-0.67 4.02 -0.34 2.04 0 0 Z " fill="#ACADA9" transform="translate(73,30)"/>
<path d="M0 0 C1.09658936 3.28976808 0.79953138 4.71303767 0 8 C-0.66 8 -1.32 8 -2 8 C-2.33 8.66 -2.66 9.32 -3 10 C-4.32 10 -5.64 10 -7 10 C-7 8.02 -7 6.04 -7 4 C-4.69 2.68 -2.38 1.36 0 0 Z " fill="#C1BAB3" transform="translate(86,42)"/>
<path d="M0 0 C2.31 0 4.62 0 7 0 C7.66 1.32 8.32 2.64 9 4 C8 5 8 5 5.71484375 5.09765625 C4.34005859 5.08025391 4.34005859 5.08025391 2.9375 5.0625 C2.01839844 5.05347656 1.09929687 5.04445312 0.15234375 5.03515625 C-0.55792969 5.02355469 -1.26820312 5.01195312 -2 5 C-1.34 3.35 -0.68 1.7 0 0 Z " fill="#B15356" transform="translate(72,131)"/>
<path d="M0 0 C1 2 1 2 0.58203125 3.875 C0.32808594 4.57625 0.07414062 5.2775 -0.1875 6 C-0.42855469 6.70125 -0.66960937 7.4025 -0.91796875 8.125 C-2 10 -2 10 -6 12 C-5.67 8.7 -5.34 5.4 -5 2 C-3.35 1.34 -1.7 0.68 0 0 Z " fill="#B6B8B4" transform="translate(118,67)"/>
<path d="M0 0 C8.19256018 0.35010941 8.19256018 0.35010941 11.5625 3.0625 C12.036875 3.701875 12.51125 4.34125 13 5 C12.67 5.99 12.34 6.98 12 8 C10.35 8 8.7 8 7 8 C6.7525 7.030625 6.505 6.06125 6.25 5.0625 C5.63125 3.5465625 5.63125 3.5465625 5 2 C2.96756452 1.03122943 2.96756452 1.03122943 1 1 C0.67 1.99 0.34 2.98 0 4 C0 2.68 0 1.36 0 0 Z " fill="#B26967" transform="translate(51,69)"/>
<path d="M0 0 C2.64 0 5.28 0 8 0 C8 0.66 8 1.32 8 2 C8.66 2 9.32 2 10 2 C9.67 3.32 9.34 4.64 9 6 C9 5.01 9 4.02 9 3 C8.45730469 3.27714844 7.91460937 3.55429687 7.35546875 3.83984375 C6.28232422 4.38318359 6.28232422 4.38318359 5.1875 4.9375 C4.47980469 5.29714844 3.77210937 5.65679687 3.04296875 6.02734375 C1 7 1 7 -2 8 C-1.67 7.05125 -1.34 6.1025 -1 5.125 C0.10159191 2.22937548 0.10159191 2.22937548 0 0 Z " fill="#ACAFAB" transform="translate(117,56)"/>
<path d="M0 0 C1.98 0 3.96 0 6 0 C5.33333333 1.33333333 4.66666667 2.66666667 4 4 C3.731875 4.70125 3.46375 5.4025 3.1875 6.125 C1.57419501 8.67232367 -0.18771058 9.1119086 -3 10 C-2.39009109 6.44219804 -1.4216319 3.3171411 0 0 Z " fill="#847266" transform="translate(85,33)"/>
<path d="M0 0 C1.2065625 0.0309375 1.2065625 0.0309375 2.4375 0.0625 C0.77083333 1.72916667 -0.89583333 3.39583333 -2.5625 5.0625 C-3.09875 5.660625 -3.635 6.25875 -4.1875 6.875 C-5.5625 8.0625 -5.5625 8.0625 -8.5625 8.0625 C-8.68625 8.866875 -8.81 9.67125 -8.9375 10.5 C-9.14375 11.345625 -9.35 12.19125 -9.5625 13.0625 C-10.5525 13.5575 -10.5525 13.5575 -11.5625 14.0625 C-10.8125 7.3125 -10.8125 7.3125 -8.5625 5.0625 C-7.5725 5.0625 -6.5825 5.0625 -5.5625 5.0625 C-5.253125 4.423125 -4.94375 3.78375 -4.625 3.125 C-3.05351796 0.07447605 -3.05351796 0.07447605 0 0 Z " fill="#59504D" transform="translate(41.5625,25.9375)"/>
<path d="M0 0 C2.64 0 5.28 0 8 0 C8 0.66 8 1.32 8 2 C6.02 2.33 4.04 2.66 2 3 C2.99 6.3 3.98 9.6 5 13 C4.01 13 3.02 13 2 13 C1.51171875 10.98177083 1.0234375 8.96354167 0.53515625 6.9453125 C0.05153008 4.9414343 0.05153008 4.9414343 -1 3 C-1.66 2.67 -2.32 2.34 -3 2 C-2.01 2 -1.02 2 0 2 C0 1.34 0 0.68 0 0 Z " fill="#A3A8A2" transform="translate(45,26)"/>
<path d="M0 0 C0.66 0 1.32 0 2 0 C2 0.66 2 1.32 2 2 C2.62648438 1.90460938 3.25296875 1.80921875 3.8984375 1.7109375 C4.71570313 1.60007812 5.53296875 1.48921875 6.375 1.375 C7.59316406 1.20097656 7.59316406 1.20097656 8.8359375 1.0234375 C9.55007813 1.01570313 10.26421875 1.00796875 11 1 C11.66 1.66 12.32 2.32 13 3 C12 4 12 4 9.93359375 4.09765625 C9.10988281 4.08605469 8.28617188 4.07445313 7.4375 4.0625 C6.61121094 4.05347656 5.78492188 4.04445313 4.93359375 4.03515625 C4.29550781 4.02355469 3.65742188 4.01195313 3 4 C3 4.66 3 5.32 3 6 C1.35 6 -0.3 6 -2 6 C-2 4.68 -2 3.36 -2 2 C-1.34 2 -0.68 2 0 2 C0 1.34 0 0.68 0 0 Z " fill="#858E8E" transform="translate(5,95)"/>
<path d="M0 0 C0 0.66 0 1.32 0 2 C0.99 2 1.98 2 3 2 C2.67 3.32 2.34 4.64 2 6 C-0.31 6.33 -2.62 6.66 -5 7 C-4.67 6.34 -4.34 5.68 -4 5 C-2.68 5 -1.36 5 0 5 C0 4.34 0 3.68 0 3 C-4.62 3 -9.24 3 -14 3 C-13.67 2.34 -13.34 1.68 -13 1 C-8.71230214 -0.29930238 -4.43489655 -0.07516774 0 0 Z " fill="#9F968C" transform="translate(109,54)"/>
<path d="M0 0 C0.33 0 0.66 0 1 0 C1.09796875 0.58007812 1.1959375 1.16015625 1.296875 1.7578125 C2.7456429 9.32637583 6.12827182 14.08433007 11 20 C7.93327189 19.68988143 7.02110222 19.02298145 4.89453125 16.70703125 C3.86392578 15.27423828 3.86392578 15.27423828 2.8125 13.8125 C1.77029297 12.39904297 1.77029297 12.39904297 0.70703125 10.95703125 C-1.09772277 7.83071822 -1.82200026 5.59559472 -2 2 C-1.34 1.34 -0.68 0.68 0 0 Z " fill="#8E928B" transform="translate(45,30)"/>
<path d="M0 0 C1.32 0 2.64 0 4 0 C4 0.99 4 1.98 4 3 C6.31 2.34 8.62 1.68 11 1 C9.125 4.875 9.125 4.875 8 6 C6.00041636 6.04080783 3.99954746 6.04254356 2 6 C2 5.34 2 4.68 2 4 C1.01 4 0.02 4 -1 4 C-0.67 2.68 -0.34 1.36 0 0 Z " fill="#C49995" transform="translate(91,72)"/>
<path d="M0 0 C-3.05882353 6.11764706 -3.05882353 6.11764706 -8 8 C-8.99 8.66 -9.98 9.32 -11 10 C-10.75 7.125 -10.75 7.125 -10 4 C-8.125 2.75 -8.125 2.75 -6 2 C-3 0 -3 0 0 0 Z " fill="#887D72" transform="translate(87,54)"/>
<path d="M0 0 C1.69752187 0.25245197 3.38471545 0.57645775 5.0625 0.9375 C5.98160156 1.13214844 6.90070312 1.32679687 7.84765625 1.52734375 C8.91306641 1.76130859 8.91306641 1.76130859 10 2 C10.33 2.99 10.66 3.98 11 5 C6.25 3.125 6.25 3.125 4 2 C4 2.99 4 3.98 4 5 C2.3954444 4.85851011 0.79136233 4.71164314 -0.8125 4.5625 C-1.70582031 4.48128906 -2.59914063 4.40007812 -3.51953125 4.31640625 C-6 4 -6 4 -9 3 C-9 2.67 -9 2.34 -9 2 C-6.94921875 1.77213542 -4.8984375 1.54427083 -2.84765625 1.31640625 C-0.98859771 1.18113386 -0.98859771 1.18113386 0 0 Z " fill="#ABB3AD" transform="translate(45,97)"/>
<path d="M0 0 C2.76223278 2.76223278 2.57856291 5.20706617 3 9 C4.98 9 6.96 9 9 9 C8.67 9.66 8.34 10.32 8 11 C7.030625 11.309375 6.06125 11.61875 5.0625 11.9375 C1.7319557 12.74744122 1.7319557 12.74744122 0 16 C-0.19672365 14.27185839 -0.38196799 12.54240803 -0.5625 10.8125 C-0.71912109 9.36810547 -0.71912109 9.36810547 -0.87890625 7.89453125 C-0.99758751 5.05766623 -0.67765639 2.74576329 0 0 Z " fill="#A1A7A0" transform="translate(49,71)"/>
<path d="M0 0 C0.66 0 1.32 0 2 0 C1.690625 1.0725 1.38125 2.145 1.0625 3.25 C0.33187904 5.82866222 -0.37482904 8.39512102 -1 11 C-0.34 11.33 0.32 11.66 1 12 C-0.32 12 -1.64 12 -3 12 C-2.67 10.35 -2.34 8.7 -2 7 C-3.98 7.99 -3.98 7.99 -6 9 C-6.99 8.34 -7.98 7.68 -9 7 C-7.824375 6.87625 -7.824375 6.87625 -6.625 6.75 C-3.87359896 6.28389075 -3.87359896 6.28389075 -2.8125 4.0625 C-2.544375 3.381875 -2.27625 2.70125 -2 2 C-1.34 1.34 -0.68 0.68 0 0 Z " fill="#93938A" transform="translate(93,46)"/>
<path d="M0 0 C4.40114397 0.50298788 6.71195019 2.08772731 10 5 C9.67 5.66 9.34 6.32 9 7 C8.34 6.67 7.68 6.34 7 6 C6.67 6.66 6.34 7.32 6 8 C3.69 6.35 1.38 4.7 -1 3 C-0.67 2.01 -0.34 1.02 0 0 Z " fill="#94968E" transform="translate(44,48)"/>
<path d="M0 0 C2 1 2 1 2.8515625 3.06640625 C3.10679688 3.89011719 3.36203125 4.71382812 3.625 5.5625 C3.88539062 6.38878906 4.14578125 7.21507812 4.4140625 8.06640625 C4.60742188 8.70449219 4.80078125 9.34257813 5 10 C1.73988358 9.30621489 0.20961747 8.54106009 -2 6 C-1.34 6 -0.68 6 0 6 C-0.33 5.34 -0.66 4.68 -1 4 C-1.99 4.99 -2.98 5.98 -4 7 C-4.66 6.67 -5.32 6.34 -6 6 C-4.02 4.02 -2.04 2.04 0 0 Z " fill="#B9B3AC" transform="translate(42,33)"/>
<path d="M0 0 C1.67542976 0.28604898 3.34385343 0.61781233 5 1 C5.042721 2.66611905 5.04063832 4.33382885 5 6 C4 7 4 7 1.4375 7.0625 C0.2309375 7.0315625 0.2309375 7.0315625 -1 7 C-1.04254356 5.00045254 -1.04080783 2.99958364 -1 1 C-0.67 0.67 -0.34 0.34 0 0 Z " fill="#C97541" transform="translate(75,119)"/>
<path d="M0 0 C6.75 3.75 6.75 3.75 9 6 C10.98821313 6.39764263 12.98944339 6.73775349 15 7 C14.67 7.99 14.34 8.98 14 10 C12.54096742 9.69078116 11.08279278 9.37751201 9.625 9.0625 C8.81289063 8.88847656 8.00078125 8.71445313 7.1640625 8.53515625 C5 8 5 8 3 7 C2.66666667 5.66666667 2.33333333 4.33333333 2 3 C1.34 2.67 0.68 2.34 0 2 C0 1.34 0 0.68 0 0 Z " fill="#94928C" transform="translate(38,101)"/>
<path d="M0 0 C0.66 0 1.32 0 2 0 C2.49196648 5.90359781 1.31411786 10.04091853 -2 15 C-2.99 15.495 -2.99 15.495 -4 16 C-4.37485997 11.62663369 -3.24092779 9.67512158 -1 6 C-0.28598768 2.80604974 -0.28598768 2.80604974 0 0 Z " fill="#8B837A" transform="translate(112,62)"/>
<path d="M0 0 C0 0.33 0 0.66 0 1 C-0.97582031 1.25394531 -1.95164062 1.50789063 -2.95703125 1.76953125 C-4.22933594 2.11371094 -5.50164062 2.45789062 -6.8125 2.8125 C-8.07707031 3.14894531 -9.34164062 3.48539062 -10.64453125 3.83203125 C-13.78116282 4.92382734 -14.91365193 5.58094526 -17 8 C-17.66 8 -18.32 8 -19 8 C-18.625 5.6875 -18.625 5.6875 -17 3 C-11.53044727 0.41181978 -5.98397638 -0.39025933 0 0 Z " fill="#8F877D" transform="translate(109,61)"/>
<path d="M0 0 C0 1.32 0 2.64 0 4 C-0.639375 4.103125 -1.27875 4.20625 -1.9375 4.3125 C-2.618125 4.539375 -3.29875 4.76625 -4 5 C-4.33 5.99 -4.66 6.98 -5 8 C-7 5 -7 5 -7 3 C-7.66 2.67 -8.32 2.34 -9 2 C-5.62902617 0.50178941 -3.79557881 0 0 0 Z " fill="#828076" transform="translate(110,92)"/>
<path d="M0 0 C4.49797113 1.68673918 8.72886302 3.81673892 13 6 C13 6.66 13 7.32 13 8 C10.4375 8.4375 10.4375 8.4375 7 8 C4.35250006 5.9390719 2.11133474 3.60481239 0 1 C0 0.67 0 0.34 0 0 Z " fill="#A29D97" transform="translate(56,66)"/>
<path d="M0 0 C1.98 0 3.96 0 6 0 C6 1.65 6 3.3 6 5 C4.34385343 5.38218767 2.67542976 5.71395102 1 6 C0 5 0 5 -0.0625 2.4375 C-0.041875 1.633125 -0.02125 0.82875 0 0 Z " fill="#9C9838" transform="translate(73,96)"/>
<path d="M0 0 C4.41889613 1.35021826 6.34345343 3.26115668 9 7 C7.824375 6.505 7.824375 6.505 6.625 6 C3.60042626 4.84778143 2.64602513 4.81778778 -0.4375 5.6875 C-1.283125 5.790625 -2.12875 5.89375 -3 6 C-4.8125 4.5625 -4.8125 4.5625 -6 3 C-3.03 3.495 -3.03 3.495 0 4 C-0.33 3.01 -0.66 2.02 -1 1 C-0.67 0.67 -0.34 0.34 0 0 Z " fill="#94A8A6" transform="translate(37,83)"/>
<path d="M0 0 C1.65 0 3.3 0 5 0 C3.125 5.875 3.125 5.875 2 7 C0.33382885 7.04063832 -1.33388095 7.042721 -3 7 C-2.01 4.69 -1.02 2.38 0 0 Z " fill="#827C6D" transform="translate(64,74)"/>
<path d="M0 0 C0.66 0.33 1.32 0.66 2 1 C0.54744301 4.82946843 -1.42895561 6.12050295 -5 8 C-5 7.34 -5 6.68 -5 6 C-6.32 5.67 -7.64 5.34 -9 5 C-6.53473114 2.53473114 -4.28518427 2.04846307 -1 1 C-0.67 0.67 -0.34 0.34 0 0 Z " fill="#9CA6A5" transform="translate(136,66)"/>
<path d="M0 0 C0 0.33 0 0.66 0 1 C-0.886875 1.226875 -1.77375 1.45375 -2.6875 1.6875 C-6.43984415 3.17427787 -8.21694945 5.14173187 -11 8 C-11.99 8 -12.98 8 -14 8 C-11.48098113 0.4429434 -7.189981 -0.60932042 0 0 Z " fill="#989997" transform="translate(87,31)"/>
<path d="M0 0 C0.66 0 1.32 0 2 0 C1.67 1.65 1.34 3.3 1 5 C1.99 5 2.98 5 4 5 C4 5.66 4 6.32 4 7 C2.02 7.99 2.02 7.99 0 9 C-0.33 7.68 -0.66 6.36 -1 5 C-2.32 5.33 -3.64 5.66 -5 6 C-3.38405168 3.95880212 -1.7143618 1.95927063 0 0 Z " fill="#AAA99F" transform="translate(89,53)"/>
<path d="M0 0 C2.31 0.33 4.62 0.66 7 1 C7.33 1.99 7.66 2.98 8 4 C7.01 4 6.02 4 5 4 C5.33 4.99 5.66 5.98 6 7 C4.35 7.66 2.7 8.32 1 9 C0.67 7.68 0.34 6.36 0 5 C0.66 5 1.32 5 2 5 C1.34 3.35 0.68 1.7 0 0 Z " fill="#A3A29B" transform="translate(41,41)"/>
<path d="M0 0 C5.47826087 -0.36521739 5.47826087 -0.36521739 7.875 1.3125 C9 3 9 3 9 6 C5.51669784 5.35494404 2.90567134 4.01782732 0 2 C0 1.34 0 0.68 0 0 Z " fill="#BABEB8" transform="translate(39,100)"/>
<path d="M0 0 C0.33 1.32 0.66 2.64 1 4 C3.64 4 6.28 4 9 4 C9.33 4.99 9.66 5.98 10 7 C9.67 7.66 9.34 8.32 9 9 C7.02 9 5.04 9 3 9 C3 8.34 3 7.68 3 7 C3.99 7 4.98 7 6 7 C6 6.34 6 5.68 6 5 C4.02 5 2.04 5 0 5 C0 3.35 0 1.7 0 0 Z " fill="#625753" transform="translate(47,21)"/>
<path d="M0 0 C0.99 0.33 1.98 0.66 3 1 C4.25541557 4.76624671 3.37061958 6.37188934 2 10 C1.01 9.67 0.02 9.34 -1 9 C-0.67 6.03 -0.34 3.06 0 0 Z " fill="#7B6D61" transform="translate(44,63)"/>
<path d="M0 0 C3.82118677 0.54588382 7.36378667 1.73155349 11 3 C11 3.33 11 3.66 11 4 C9.35 4 7.7 4 6 4 C6 4.66 6 5.32 6 6 C2.34683329 4.75023244 1.21934164 4.32901247 -1 1 C-0.67 0.67 -0.34 0.34 0 0 Z " fill="#BCB1AD" transform="translate(108,24)"/>
<path d="M0 0 C1.65 0.33 3.3 0.66 5 1 C5.33 2.98 5.66 4.96 6 7 C3.97954558 6.39816251 1.97888961 5.72693904 0 5 C-0.33 4.34 -0.66 3.68 -1 3 C-0.67 2.01 -0.34 1.02 0 0 Z " fill="#C49590" transform="translate(52,70)"/>
<path d="M0 0 C1.32 0 2.64 0 4 0 C3.1654738 2.50357861 2.20628008 4.66785852 1 7 C0.21625 6.814375 -0.5675 6.62875 -1.375 6.4375 C-3.97089775 5.74037734 -3.97089775 5.74037734 -6 7 C-6.66 6.34 -7.32 5.68 -8 5 C-1.25 2.875 -1.25 2.875 1 4 C0.67 2.68 0.34 1.36 0 0 Z " fill="#A7ACA6" transform="translate(38,62)"/>
<path d="M0 0 C0.66 0 1.32 0 2 0 C1.67 7.26 1.34 14.52 1 22 C0.67 22 0.34 22 0 22 C-0.19590444 18.52125243 -0.38031592 15.04199096 -0.5625 11.5625 C-0.61857422 10.56927734 -0.67464844 9.57605469 -0.73242188 8.55273438 C-0.78076172 7.60849609 -0.82910156 6.66425781 -0.87890625 5.69140625 C-0.9260376 4.81685791 -0.97316895 3.94230957 -1.02172852 3.04125977 C-1 1 -1 1 0 0 Z " fill="#3F3B3C" transform="translate(1,63)"/>
<path d="M0 0 C2 1 2 1 3 2 C3.04063832 3.66617115 3.042721 5.33388095 3 7 C1.35 7.33 -0.3 7.66 -2 8 C-2.125 5.125 -2.125 5.125 -2 2 C-1.34 1.34 -0.68 0.68 0 0 Z " fill="#A89C95" transform="translate(58,23)"/>
<path d="M0 0 C0 0.33 0 0.66 0 1 C-1.05960938 1.10957031 -2.11921875 1.21914062 -3.2109375 1.33203125 C-4.5990403 1.49147549 -5.98705698 1.65167084 -7.375 1.8125 C-8.42300781 1.91788086 -8.42300781 1.91788086 -9.4921875 2.02539062 C-11.34332338 2.24788292 -13.17538205 2.61662522 -15 3 C-15.66 3.99 -16.32 4.98 -17 6 C-17.33 4.35 -17.66 2.7 -18 1 C-11.93303301 0.22959149 -6.11485027 -0.09706112 0 0 Z " fill="#A6B0AE" transform="translate(26,98)"/>
<path d="M0 0 C0.66 0.33 1.32 0.66 2 1 C-1.96 4.96 -5.92 8.92 -10 13 C-10.66 12.67 -11.32 12.34 -12 12 C-8.27653164 7.57905197 -4.70478962 3.42166518 0 0 Z " fill="#C3C2BE" transform="translate(134,71)"/>
<path d="M0 0 C8.6309795 2.70615034 8.6309795 2.70615034 11 7 C7.90584243 6.57343918 4.94119871 6.07001562 2 5 C0.4375 2.375 0.4375 2.375 0 0 Z " fill="#8F877F" transform="translate(48,63)"/>
<path d="M0 0 C0.66 0.33 1.32 0.66 2 1 C1.01 1.33 0.02 1.66 -1 2 C-1.73323796 4.01508358 -1.73323796 4.01508358 -2 6 C-1.01 6.33 -0.02 6.66 1 7 C-2.625 10 -2.625 10 -6 10 C-4.79157144 5.56909529 -3.48331435 3.01887244 0 0 Z " fill="#809391" transform="translate(108,96)"/>
<path d="M0 0 C1.32 0.33 2.64 0.66 4 1 C3.82374165 3.37948772 3.30280227 4.70225849 1.59765625 6.37890625 C0.09350908 7.62115486 -1.45129851 8.81376056 -3 10 C-2.690625 9.0925 -2.38125 8.185 -2.0625 7.25 C-1.2727737 4.83436662 -0.57050703 2.47219715 0 0 Z " fill="#363035" transform="translate(145,56)"/>
<path d="M0 0 C0.66 0.33 1.32 0.66 2 1 C2.125 7.75 2.125 7.75 1 10 C0.01 9.67 -0.98 9.34 -2 9 C-2.125 5.625 -2.125 5.625 -2 2 C-1.34 1.34 -0.68 0.68 0 0 Z " fill="#B2B1A9" transform="translate(56,37)"/>
<path d="M0 0 C1.98 0 3.96 0 6 0 C5.67 1.65 5.34 3.3 5 5 C3.68 5 2.36 5 1 5 C0.67 3.35 0.34 1.7 0 0 Z " fill="#C9993A" transform="translate(73,108)"/>
<path d="M0 0 C0 0.66 0 1.32 0 2 C0.66 2.66 1.32 3.32 2 4 C0.906875 3.979375 -0.18625 3.95875 -1.3125 3.9375 C-4.94384191 3.81455548 -4.94384191 3.81455548 -8 5 C-8 3.68 -8 2.36 -8 1 C-4.93251126 -0.86240388 -3.40254489 -1.2151946 0 0 Z " fill="#9DAAA3" transform="translate(50,94)"/>
<path d="M0 0 C0 0.66 0 1.32 0 2 C-4.43076923 4.09230769 -4.43076923 4.09230769 -7.3125 3.625 C-7.869375 3.41875 -8.42625 3.2125 -9 3 C-9 2.34 -9 1.68 -9 1 C-5.64919071 -1.10976881 -3.77897651 -1.0497157 0 0 Z " fill="#C0B7AE" transform="translate(109,57)"/>
<path d="M0 0 C0.99 0 1.98 0 3 0 C1.52307692 5.66153846 1.52307692 5.66153846 -1.125 7.375 C-2.053125 7.684375 -2.053125 7.684375 -3 8 C-1.125 1.125 -1.125 1.125 0 0 Z " fill="#846F63" transform="translate(93,35)"/>
<path d="M0 0 C1.70884005 1.62339805 3.37446717 3.29319053 5 5 C5 5.66 5 6.32 5 7 C3.68 7 2.36 7 1 7 C1 8.65 1 10.3 1 12 C0.67 12 0.34 12 0 12 C0 8.04 0 4.08 0 0 Z " fill="#858884" transform="translate(105,23)"/>
<path d="M0 0 C0.66 0 1.32 0 2 0 C2.33 2.31 2.66 4.62 3 7 C1.68 7.99 0.36 8.98 -1 10 C-0.67 8.02 -0.34 6.04 0 4 C-0.66 3.67 -1.32 3.34 -2 3 C-1.34 2.01 -0.68 1.02 0 0 Z " fill="#A6958C" transform="translate(62,105)"/>
<path d="M0 0 C0.99 0 1.98 0 3 0 C2.67 1.65 2.34 3.3 2 5 C2.66 5 3.32 5 4 5 C3.34 6.65 2.68 8.3 2 10 C1.34 9.67 0.68 9.34 0 9 C0 6.03 0 3.06 0 0 Z " fill="#8C847A" transform="translate(101,100)"/>
<path d="M0 0 C1.98 0.99 1.98 0.99 4 2 C4 2.99 4 3.98 4 5 C6.44496043 6.71711243 6.44496043 6.71711243 9 8 C8.67 8.66 8.34 9.32 8 10 C5.125 8.9375 5.125 8.9375 2 7 C0.625 3.3125 0.625 3.3125 0 0 Z " fill="#AFB2AD" transform="translate(29,73)"/>
<path d="M0 0 C2.475 0.495 2.475 0.495 5 1 C5 2.32 5 3.64 5 5 C3.35 5 1.7 5 0 5 C0 3.35 0 1.7 0 0 Z " fill="#9B9794" transform="translate(73,85)"/>
<path d="M0 0 C0.66 0.33 1.32 0.66 2 1 C2 1.99 2 2.98 2 4 C2.66 4 3.32 4 4 4 C4 4.99 4 5.98 4 7 C2.35 7 0.7 7 -1 7 C-0.67 4.69 -0.34 2.38 0 0 Z " fill="#7E817A" transform="translate(28,57)"/>
<path d="M0 0 C0.66 0 1.32 0 2 0 C2 0.66 2 1.32 2 2 C3.32 2.66 4.64 3.32 6 4 C4 6 4 6 1.375 6.125 C0.59125 6.08375 -0.1925 6.0425 -1 6 C-0.67 4.02 -0.34 2.04 0 0 Z " fill="#878477" transform="translate(91,76)"/>
<path d="M0 0 C0 1.65 0 3.3 0 5 C-3.02419525 4.41196203 -6.01758453 3.77321882 -9 3 C-3.375 0 -3.375 0 0 0 Z " fill="#934A45" transform="translate(102,66)"/>
<path d="M0 0 C1.32 0.33 2.64 0.66 4 1 C2.86280581 4.41158256 1.95657056 5.11854601 -1 7 C-1.66 7 -2.32 7 -3 7 C-2.67 5.68 -2.34 4.36 -2 3 C-1.34 3 -0.68 3 0 3 C0 2.01 0 1.02 0 0 Z " fill="#BCB4AA" transform="translate(87,60)"/>
<path d="M0 0 C0.66666667 2.66666667 1.33333333 5.33333333 2 8 C1.236875 7.67 0.47375 7.34 -0.3125 7 C-2.99069135 5.82563314 -2.99069135 5.82563314 -6 6 C-5 4 -5 4 -2 3 C-1.34 2.01 -0.68 1.02 0 0 Z " fill="#A8A59E" transform="translate(34,41)"/>
<path d="M0 0 C1.65 0.99 3.3 1.98 5 3 C3.75 4.5 3.75 4.5 2 6 C0.68 6 -0.64 6 -2 6 C-2 5.34 -2 4.68 -2 4 C-1.34 4 -0.68 4 0 4 C0 2.68 0 1.36 0 0 Z " fill="#AE9B95" transform="translate(91,117)"/>
<path d="M0 0 C0 0.66 0 1.32 0 2 C-2 3.625 -2 3.625 -4 5 C-5.32 4.34 -6.64 3.68 -8 3 C-4.93882432 0.37613513 -4.26826873 0 0 0 Z " fill="#4B3A37" transform="translate(96,111)"/>
<path d="M0 0 C0.33 0 0.66 0 1 0 C1.66 3.63 2.32 7.26 3 11 C2.01 11.33 1.02 11.66 0 12 C-0.92844389 7.66726186 -0.92844389 4.33273814 0 0 Z " fill="#403B3D" transform="translate(2,86)"/>
<path d="M0 0 C0.97608217 2.92824652 1.08226668 4.95613276 1 8 C-0.32 8.33 -1.64 8.66 -3 9 C-2.44271087 5.65626525 -1.64826111 2.96687001 0 0 Z " fill="#A5A9A5" transform="translate(112,72)"/>
<path d="M0 0 C-1.875 3.875 -1.875 3.875 -3 5 C-4.66617115 5.04063832 -6.33388095 5.042721 -8 5 C-8 4.34 -8 3.68 -8 3 C-2.25 0 -2.25 0 0 0 Z " fill="#ABA79E" transform="translate(102,73)"/>
<path d="M0 0 C3.00617269 3.00617269 2.59585316 5.82381598 3 10 C2.01 10.33 1.02 10.66 0 11 C-0.84098656 6.98195309 -1.05404945 3.98196457 0 0 Z " fill="#95968E" transform="translate(49,71)"/>
<path d="M0 0 C0.33 1.32 0.66 2.64 1 4 C2.32 4 3.64 4 5 4 C5.33 3.01 5.66 2.02 6 1 C6.33 1.66 6.66 2.32 7 3 C9.02463255 3.65213292 9.02463255 3.65213292 11 4 C8.24921116 4.91692961 6.64051087 5.10886083 3.8125 5.0625 C1.9253125 5.0315625 1.9253125 5.0315625 0 5 C0 3.35 0 1.7 0 0 Z " fill="#B5AEA7" transform="translate(78,48)"/>
<path d="M0 0 C0.99 0.33 1.98 0.66 3 1 C3.33 1.99 3.66 2.98 4 4 C3.01 4 2.02 4 1 4 C0.01 6.31 -0.98 8.62 -2 11 C-3.13643966 7.59068103 -2.86747764 6.99664544 -1.5625 3.8125 C-1.13130859 2.73935547 -1.13130859 2.73935547 -0.69140625 1.64453125 C-0.46324219 1.10183594 -0.23507812 0.55914062 0 0 Z " fill="#998E8A" transform="translate(16,48)"/>
<path d="M0 0 C1 3 1 3 0.0625 5.1875 C-0.4634375 6.0846875 -0.4634375 6.0846875 -1 7 C-2.32 7 -3.64 7 -5 7 C-3.70700306 4.11562221 -2.34058637 2.12780579 0 0 Z " fill="#C9C1BA" transform="translate(84,45)"/>
<path d="M0 0 C-1 3 -1 3 -2.8125 4.25 C-5.33943414 5.11637742 -6.52221994 4.88492145 -9 4 C-3.375 0 -3.375 0 0 0 Z " fill="#D3C3BD" transform="translate(102,118)"/>
<path d="M0 0 C1.65 0 3.3 0 5 0 C5 1.32 5 2.64 5 4 C3.35 4 1.7 4 0 4 C0 2.68 0 1.36 0 0 Z " fill="#BE91A0" transform="translate(72,73)"/>
<path d="M0 0 C3 1 3 1 4.6875 3.25 C6.06511203 6.1364252 6.26985151 7.85173236 6 11 C5.7525 10.443125 5.505 9.88625 5.25 9.3125 C4.00800235 6.84535202 4.00800235 6.84535202 1.875 4.375 C0 2 0 2 0 0 Z " fill="#8F867C" transform="translate(57,45)"/>
<path d="M0 0 C0.99 0.33 1.98 0.66 3 1 C3 1.66 3 2.32 3 3 C2.01 3 1.02 3 0 3 C-0.12375 3.804375 -0.2475 4.60875 -0.375 5.4375 C-0.58125 6.283125 -0.7875 7.12875 -1 8 C-1.99 8.495 -1.99 8.495 -3 9 C-2.25 2.25 -2.25 2.25 0 0 Z " fill="#706864" transform="translate(33,31)"/>
<path d="M0 0 C0.33 0 0.66 0 1 0 C1.33 2.64 1.66 5.28 2 8 C1.34 8 0.68 8 0 8 C-0.33 8.66 -0.66 9.32 -1 10 C-1.99 9.67 -2.98 9.34 -4 9 C-3.34 9 -2.68 9 -2 9 C-2.04125 8.2575 -2.0825 7.515 -2.125 6.75 C-1.99601866 3.91241048 -1.42948778 2.41226062 0 0 Z " fill="#6F7374" transform="translate(106,17)"/>
<path d="M0 0 C1.65 0 3.3 0 5 0 C5.33 0.99 5.66 1.98 6 3 C3.69 3 1.38 3 -1 3 C-0.67 2.01 -0.34 1.02 0 0 Z " fill="#CC4854" transform="translate(73,132)"/>
<path d="M0 0 C2.475 0.99 2.475 0.99 5 2 C4.6875 3.9375 4.6875 3.9375 4 6 C3.01 6.33 2.02 6.66 1 7 C0.67 4.69 0.34 2.38 0 0 Z " fill="#A7A9A4" transform="translate(72,48)"/>
<path d="M0 0 C1.98 0.66 3.96 1.32 6 2 C5.67 2.99 5.34 3.98 5 5 C3.35 5 1.7 5 0 5 C0.66 4.34 1.32 3.68 2 3 C1.01 2.34 0.02 1.68 -1 1 C-0.67 0.67 -0.34 0.34 0 0 Z " fill="#B8B2AB" transform="translate(93,41)"/>
<path d="M0 0 C2 1 2 1 2 1 Z M0 2 C-0.9590625 2.433125 -0.9590625 2.433125 -1.9375 2.875 C-4.15206079 3.82823451 -4.15206079 3.82823451 -5 6 C-5.66 4.68 -6.32 3.36 -7 2 C-3.86650268 0.95550089 -3.01031744 1.06576355 0 2 Z " fill="#BCB1A9" transform="translate(68,28)"/>
<path d="M0 0 C0.99 0 1.98 0 3 0 C2.67 1.65 2.34 3.3 2 5 C0.35 4.67 -1.3 4.34 -3 4 C-1.6875 2 -1.6875 2 0 0 Z " fill="#B6A8A2" transform="translate(59,109)"/>
<path d="M0 0 C-0.3125 1.9375 -0.3125 1.9375 -1 4 C-1.99 4.33 -2.98 4.66 -4 5 C-4 4.01 -4 3.02 -4 2 C-4.66 1.67 -5.32 1.34 -6 1 C-3 0 -3 0 0 0 Z " fill="#739798" transform="translate(34,88)"/>
<path d="M0 0 C1.485 0.99 1.485 0.99 3 2 C3.1875 5.125 3.1875 5.125 3 8 C2.34 8 1.68 8 1 8 C0.67 5.36 0.34 2.72 0 0 Z " fill="#7C7A74" transform="translate(27,75)"/>
<path d="M0 0 C0.99 0 1.98 0 3 0 C1.60667426 3.36720387 0.0210714 4.9859524 -3 7 C-3 6.01 -3 5.02 -3 4 C-2.34 4 -1.68 4 -1 4 C-0.67 2.68 -0.34 1.36 0 0 Z " fill="#839493" transform="translate(123,63)"/>
<path d="M0 0 C0.33 0 0.66 0 1 0 C1.33 3.3 1.66 6.6 2 10 C0.68 9.34 -0.64 8.68 -2 8 C-1.34 8 -0.68 8 0 8 C-0.37125 7.4225 -0.7425 6.845 -1.125 6.25 C-2 4 -2 4 -1.125 1.75 C-0.75375 1.1725 -0.3825 0.595 0 0 Z " fill="#B2B0A9" transform="translate(57,57)"/>
<path d="M0 0 C0.66 0.33 1.32 0.66 2 1 C0.02 3.31 -1.96 5.62 -4 8 C-4.66 7.67 -5.32 7.34 -6 7 C-4.02 4.69 -2.04 2.38 0 0 Z " fill="#B5ACA8" transform="translate(28,40)"/>
<path d="M0 0 C0.66 0 1.32 0 2 0 C1.25 5.75 1.25 5.75 -1 8 C-1.04241723 5.66705225 -1.04092937 3.33297433 -1 1 C-0.67 0.67 -0.34 0.34 0 0 Z " fill="#877B6A" transform="translate(89,104)"/>
<path d="M0 0 C2.4375 0.8125 2.4375 0.8125 5 2 C5.33 2.99 5.66 3.98 6 5 C4.35 4.67 2.7 4.34 1 4 C0.67 2.68 0.34 1.36 0 0 Z " fill="#BEBFBA" transform="translate(49,99)"/>
<path d="M0 0 C0.33 1.32 0.66 2.64 1 4 C1.99 4 2.98 4 4 4 C3.67 5.32 3.34 6.64 3 8 C2.34 8 1.68 8 1 8 C-0.35439668 5.29120665 -0.06501451 2.99066732 0 0 Z " fill="#B3ADAA" transform="translate(3,86)"/>
<path d="M0 0 C0.33 0.66 0.66 1.32 1 2 C-0.28062485 3.7074998 -1.61767557 5.37373596 -3 7 C-3.66 7 -4.32 7 -5 7 C-3.75023244 3.34683329 -3.32901247 2.21934164 0 0 Z " fill="#848C7C" transform="translate(87,82)"/>
<path d="M0 0 C1.5 1.125 1.5 1.125 3 3 C3.1875 6.1875 3.1875 6.1875 3 9 C2.01 8.34 1.02 7.68 0 7 C-0.1875 3.375 -0.1875 3.375 0 0 Z " fill="#9E9F99" transform="translate(41,71)"/>
<path d="M0 0 C1.875 0.25 1.875 0.25 4 1 C5.25 3.0625 5.25 3.0625 6 5 C5.01 5 4.02 5 3 5 C3 4.34 3 3.68 3 3 C2.01 2.67 1.02 2.34 0 2 C0 1.34 0 0.68 0 0 Z " fill="#A85455" transform="translate(58,71)"/>
<path d="M0 0 C-5.75 4 -5.75 4 -8 4 C-5.97675095 -0.48005146 -4.79569304 -1.43870791 0 0 Z " fill="#B7B6B0" transform="translate(123,60)"/>
<path d="M0 0 C0.99 0.33 1.98 0.66 3 1 C2.67 1.99 2.34 2.98 2 4 C1.34 4 0.68 4 0 4 C-0.33 4.66 -0.66 5.32 -1 6 C-1.625 4.125 -1.625 4.125 -2 2 C-1.34 1.34 -0.68 0.68 0 0 Z " fill="#8C847C" transform="translate(74,59)"/>
<path d="M0 0 C2.475 0.495 2.475 0.495 5 1 C4.67 2.98 4.34 4.96 4 7 C1.49962266 4.82575883 0.56371414 3.26954202 0 0 Z " fill="#ADACA3" transform="translate(50,53)"/>
<path d="M0 0 C2.31 1.98 4.62 3.96 7 6 C6.01 6.33 5.02 6.66 4 7 C0 2.25 0 2.25 0 0 Z " fill="#969A92" transform="translate(49,43)"/>
</svg>
