<?xml version="1.0" encoding="UTF-8"?>
<svg version="1.1" xmlns="http://www.w3.org/2000/svg" width="272" height="102">
<path d="M0 0 C3.96 0 7.92 0 12 0 C14.27387396 6.60506245 16.21988878 13.24567727 18 20 C20.29690099 13.40251844 22.20532905 6.75138119 24 0 C27.96 0 31.92 0 36 0 C36 12.21 36 24.42 36 37 C33.69 37 31.38 37 29 37 C28.34 31.06 27.68 25.12 27 19 C25.7246621 24.5487742 25.7246621 24.5487742 24.45727539 30.09936523 C23.11111111 35.88888889 23.11111111 35.88888889 22 37 C19.36 37 16.72 37 14 37 C12.35 30.4 10.7 23.8 9 17 C8.67 23.6 8.34 30.2 8 37 C5.36 37 2.72 37 0 37 C0 24.79 0 12.58 0 0 Z " fill="#F8F9F9" transform="translate(124,29)"/>
<path d="M0 0 C3.96 0 7.92 0 12 0 C13.85342368 5.10791129 15.70478283 10.21656415 17.55419922 15.32592773 C18.18415989 17.06539323 18.81469277 18.80465161 19.44580078 20.54370117 C20.35077616 23.03771104 21.25371759 25.53244895 22.15625 28.02734375 C22.44060913 28.80963852 22.72496826 29.59193329 23.01794434 30.39793396 C25 35.88612829 25 35.88612829 25 37 C22.03 37 19.06 37 16 37 C15.01 34.69 14.02 32.38 13 30 C8.38 30 3.76 30 -1 30 C-1.99 32.31 -2.98 34.62 -4 37 C-6.97 37 -9.94 37 -13 37 C-11.63220794 33.01594593 -10.26292684 29.03240756 -8.89233398 25.04931641 C-8.42741787 23.69756517 -7.962891 22.34567998 -7.4987793 20.99365234 C-5.08494105 13.96260143 -2.66476222 6.940776 0 0 Z M5 8 C4.32779649 9.93558599 3.66241923 11.87354372 3 13.8125 C2.62875 14.89144531 2.2575 15.97039063 1.875 17.08203125 C0.85638488 19.97120802 0.85638488 19.97120802 1 23 C4.3 23 7.6 23 11 23 C8.8092006 15.39230548 8.8092006 15.39230548 6 8 C5.67 8 5.34 8 5 8 Z " fill="#FAFAFA" transform="translate(84,29)"/>
<path d="M0 0 C3.16453821 -0.58124171 5.85628264 -0.76105816 9 0 C11.87124747 2.66838759 13.94761694 5.67395157 16 9 C16.31710938 8.3503125 16.63421875 7.700625 16.9609375 7.03125 C18.4617211 4.34476443 19.82130344 2.18295183 22 0 C25.45459085 -0.78653631 28.51969146 -0.55712449 32 0 C30.8989859 1.91847937 29.79405904 3.83471354 28.6875 5.75 C28.07261719 6.81734375 27.45773438 7.8846875 26.82421875 8.984375 C25 12 25 12 23.20703125 14.078125 C21.79982147 15.94152356 21.79982147 15.94152356 21.99609375 18.265625 C23.43270381 22.17857068 25.68110661 25.34988124 28.0625 28.75 C33 35.90364939 33 35.90364939 33 37 C29.48733728 37.63609586 26.48566369 37.86003313 23 37 C20.02234215 34.01710901 17.99378324 30.6970815 16 27 C12.99564993 30.61798832 12.99564993 30.61798832 10.9375 34.8125 C9 37 9 37 6.3671875 37.3125 C3.56139808 37.3125 0.7971147 37.21370146 -2 37 C-1.55269531 36.31035156 -1.10539063 35.62070313 -0.64453125 34.91015625 C3.12731658 29.04730536 6.68878773 23.13377299 10 17 C9.278125 15.94039062 8.55625 14.88078125 7.8125 13.7890625 C6.87475838 12.4012049 5.93727152 11.01317512 5 9.625 C4.52304688 8.92632812 4.04609375 8.22765625 3.5546875 7.5078125 C2.87792969 6.50234375 2.87792969 6.50234375 2.1875 5.4765625 C1.76855469 4.85861816 1.34960938 4.24067383 0.91796875 3.60400391 C0 2 0 2 0 0 Z " fill="#F9F9F9" transform="translate(208,29)"/>
<path d="M0 0 C1.82421875 2.50390625 1.82421875 2.50390625 3.6875 5.5625 C4.31011719 6.57441406 4.93273438 7.58632813 5.57421875 8.62890625 C6.27998047 9.80259766 6.27998047 9.80259766 7 11 C7.40992187 10.38511719 7.81984375 9.77023438 8.2421875 9.13671875 C11.62109375 4.06835938 11.62109375 4.06835938 15 -1 C17.1640625 -1.29296875 17.1640625 -1.29296875 19.625 -1.1875 C20.44226563 -1.16042969 21.25953125 -1.13335938 22.1015625 -1.10546875 C22.72804687 -1.07066406 23.35453125 -1.03585938 24 -1 C22.94251376 2.16037315 21.57155175 4.73086548 19.65234375 7.42578125 C12.88649825 17.02125038 10.4690968 24.25767045 11 36 C8.36 36 5.72 36 3 36 C3.00902344 34.97261719 3.01804687 33.94523437 3.02734375 32.88671875 C2.90370771 23.4205481 1.73637132 16.25353369 -5 9 C-6.65930156 7.98782605 -8.32447827 6.98509122 -10 6 C-10 5.34 -10 4.68 -10 4 C-9.34 4 -8.68 4 -8 4 C-8 3.34 -8 2.68 -8 2 C-3.61016949 -1.20338983 -3.61016949 -1.20338983 0 0 Z " fill="#F2F2F2" transform="translate(36,30)"/>
<path d="M0 0 C2.64 0 5.28 0 8 0 C8 12.21 8 24.42 8 37 C5.36 37 2.72 37 0 37 C0 24.79 0 12.58 0 0 Z " fill="#FBFBFB" transform="translate(181,29)"/>
</svg>
